<?xml version="1.0" encoding="UTF-8" standalone="no"?>
<!DOCTYPE svg PUBLIC "-//W3C//DTD SVG 1.1//EN" "http://www.w3.org/Graphics/SVG/1.1/DTD/svg11.dtd">
<!-- 由 Microsoft Visio, SVG Export 生成 CVLM.svg 页-1 -->
<svg xmlns="http://www.w3.org/2000/svg" xmlns:xlink="http://www.w3.org/1999/xlink" xmlns:ev="http://www.w3.org/2001/xml-events"
		xmlns:v="http://schemas.microsoft.com/visio/2003/SVGExtensions/" width="4.48876in" height="5.32538in"
		viewBox="0 0 323.191 383.427" xml:space="preserve" color-interpolation-filters="sRGB" class="st21">
	<v:documentProperties v:langID="2052" v:metric="true" v:viewMarkup="false"/>

	<style type="text/css">
	<![CDATA[
		.st1 {fill:#eeeaf2;stroke:#000000;stroke-linecap:round;stroke-linejoin:round;stroke-width:0.75}
		.st2 {fill:none;stroke:#000000;stroke-linecap:round;stroke-linejoin:round;stroke-width:0.75}
		.st3 {fill:#923931;stroke:none;stroke-linecap:round;stroke-linejoin:round;stroke-width:0.5}
		.st4 {fill:#ffffff;font-family:Calibri;font-size:1.16666em}
		.st5 {fill:#ffffff;stroke:#000000;stroke-linecap:round;stroke-linejoin:round;stroke-width:0.75}
		.st6 {fill:none;stroke:none;stroke-linecap:round;stroke-linejoin:round;stroke-width:0.25}
		.st7 {fill:#000000;font-family:Calibri;font-size:1.16666em}
		.st8 {font-size:1em}
		.st9 {fill:#000000;font-family:Calibri;font-size:1.5em;font-weight:bold}
		.st10 {fill:#92cddc;stroke:#000000;stroke-linecap:round;stroke-linejoin:round;stroke-width:0.75}
		.st11 {fill:#31859b;stroke:none;stroke-linecap:round;stroke-linejoin:round;stroke-width:0.5}
		.st12 {fill:#ffffff;stroke:#000000;stroke-dasharray:5.25,3.75;stroke-linecap:round;stroke-linejoin:round;stroke-width:0.75}
		.st13 {fill:#c4d6a0;stroke:#000000;stroke-linecap:round;stroke-linejoin:round;stroke-width:0.75}
		.st14 {fill:none;stroke:none;stroke-linecap:round;stroke-linejoin:round;stroke-width:0.75}
		.st15 {fill:#000000;font-family:Calibri;font-size:1.00001em}
		.st16 {fill:#d9958f;stroke:#000000;stroke-linecap:round;stroke-linejoin:round;stroke-width:0.75}
		.st17 {fill:#000000;stroke:#000000;stroke-linecap:round;stroke-linejoin:round;stroke-width:0.75}
		.st18 {fill:#000000;font-family:Calibri;font-size:0.666664em}
		.st19 {marker-end:url(#mrkr4-81);stroke:#000000;stroke-dasharray:5.25,3.75;stroke-linecap:round;stroke-linejoin:round;stroke-width:0.75}
		.st20 {fill:#000000;fill-opacity:1;stroke:#000000;stroke-opacity:1;stroke-width:0.22935779816514}
		.st21 {fill:none;fill-rule:evenodd;font-size:12px;overflow:visible;stroke-linecap:square;stroke-miterlimit:3}
	]]>
	</style>

	<defs id="Markers">
		<g id="lend4">
			<path d="M 2 1 L 0 0 L 2 -1 L 2 1 " style="stroke:none"/>
		</g>
		<marker id="mrkr4-81" class="st20" v:arrowType="4" v:arrowSize="2" v:setback="8.72" refX="-8.72" orient="auto"
				markerUnits="strokeWidth" overflow="visible">
			<use xlink:href="#lend4" transform="scale(-4.36,-4.36) "/>
		</marker>
	</defs>
	<g v:mID="0" v:index="1" v:groupContext="foregroundPage">
		<title>页-1</title>
		<v:pageProperties v:drawingScale="0.0393701" v:pageScale="0.0393701" v:drawingUnits="24" v:shadowOffsetX="8.50394"
				v:shadowOffsetY="-8.50394"/>
		<g id="shape2-1" v:mID="2" v:groupContext="shape" transform="translate(0.375,-0.375)">
			<title>工作表.2</title>
			<rect x="0" y="0.749994" width="322.441" height="382.677" class="st1"/>
		</g>
		<g id="shape34-3" v:mID="34" v:groupContext="shape" transform="translate(68.0522,-91.0837)">
			<title>工作表.34</title>
			<rect x="0" y="295.553" width="187.087" height="87.874" class="st2"/>
		</g>
		<g id="shape27-5" v:mID="27" v:groupContext="shape" transform="translate(75.3159,-193.981)">
			<title>工作表.27</title>
			<rect x="0" y="273.726" width="172.559" height="109.701" class="st2"/>
		</g>
		<g id="shape3-7" v:mID="3" v:groupContext="shape" transform="translate(95.1585,-150.304)">
			<title>工作表.3</title>
			<desc>Parameter extraction</desc>
			<v:textBlock v:margins="rect(4,4,4,4)" v:tabSpace="42.5197"/>
			<v:textRect cx="66.437" cy="372.643" width="132.88" height="21.5673"/>
			<rect x="0" y="361.86" width="132.874" height="21.5673" class="st3"/>
			<text x="5.82" y="376.84" class="st4" v:langID="2052"><v:paragraph v:horizAlign="1"/><v:tabList/>Parameter extraction</text>		</g>
		<g id="shape4-10" v:mID="4" v:groupContext="shape" transform="translate(169.745,718.29) rotate(180)">
			<title>工作表.4</title>
			<path d="M8.15 369.25 L0 374.57 L4.41 374.57 L4.41 383.43 L11.89 383.43 L11.89 374.57 L16.3 374.57 L8.15 369.25 Z"
					class="st5"/>
		</g>
		<g id="shape6-12" v:mID="6" v:groupContext="shape" transform="translate(98.8789,-321.245)">
			<title>工作表.6</title>
			<desc>Import image</desc>
			<v:textBlock v:margins="rect(4,4,4,4)" v:tabSpace="42.5197"/>
			<v:textRect cx="62.7165" cy="372.643" width="125.44" height="21.5673"/>
			<rect x="0" y="361.86" width="125.433" height="21.5673" class="st6"/>
			<text x="24.3" y="376.84" class="st7" v:langID="2052"><v:paragraph v:horizAlign="1"/><v:tabList/>I<tspan class="st8"
						v:langID="1033">mport image</tspan></text>		</g>
		<g id="shape10-16" v:mID="10" v:groupContext="shape" transform="translate(71.1734,-54.2333)">
			<title>工作表.10</title>
			<desc>Integrated estimation results</desc>
			<v:textBlock v:margins="rect(4,4,4,4)" v:tabSpace="42.5197"/>
			<v:textRect cx="90.4221" cy="376.341" width="180.85" height="14.1732"/>
			<rect x="0" y="369.254" width="180.844" height="14.1732" class="st6"/>
			<text x="7.93" y="380.54" class="st7" v:langID="1033"><v:paragraph v:horizAlign="1"/><v:tabList/>Integrate<tspan
						class="st8" v:langID="2052">d</tspan> <tspan class="st8" v:langID="2052">estimation</tspan> results</text>		</g>
		<g id="shape11-21" v:mID="11" v:groupContext="shape" transform="translate(122.619,-13.1309)">
			<title>工作表.11</title>
			<desc>Output</desc>
			<v:textBlock v:margins="rect(4,4,4,4)" v:tabSpace="42.5197"/>
			<v:textRect cx="38.9764" cy="376.341" width="77.96" height="14.1732"/>
			<rect x="0" y="369.254" width="77.9528" height="14.1732" class="st6"/>
			<text x="18.62" y="380.54" class="st7" v:langID="2052"><v:paragraph v:horizAlign="1"/><v:tabList/>Output</text>		</g>
		<g id="shape12-24" v:mID="12" v:groupContext="shape" transform="translate(11.0049,-346.202)">
			<title>工作表.12</title>
			<desc>CVLM structure</desc>
			<v:textBlock v:margins="rect(4,4,4,4)" v:tabSpace="42.5197"/>
			<v:textRect cx="72.2835" cy="372.643" width="144.57" height="21.5673"/>
			<rect x="0" y="361.86" width="144.567" height="21.5673" class="st6"/>
			<text x="4" y="378.04" class="st9" v:langID="1033"><v:paragraph/><v:tabList/>C<tspan class="st8" v:langID="2052">VLM structure</tspan></text>		</g>
		<g id="shape18-28" v:mID="18" v:groupContext="shape" transform="translate(181.438,445.302) rotate(180)">
			<title>工作表.18</title>
			<path d="M19.84 361.86 L0 369.95 L10.74 369.95 L10.74 383.43 L28.95 383.43 L28.95 369.95 L39.69 369.95 L19.84 361.86 Z"
					class="st10"/>
		</g>
		<g id="shape26-30" v:mID="26" v:groupContext="shape" transform="translate(98.8789,-266.182)">
			<title>工作表.26</title>
			<desc>Model selection</desc>
			<v:textBlock v:margins="rect(4,4,4,4)" v:tabSpace="42.5197"/>
			<v:textRect cx="62.7165" cy="372.643" width="125.44" height="21.5673"/>
			<rect x="0" y="361.86" width="125.433" height="21.5673" class="st11"/>
			<text x="17.1" y="376.84" class="st4" v:langID="2052"><v:paragraph v:horizAlign="1"/><v:tabList/>Model selection</text>		</g>
		<g id="shape32-33" v:mID="32" v:groupContext="shape" transform="translate(84.7057,-204.469)">
			<title>工作表.32</title>
			<path d="M0 383.43 L71.43 383.43 L71.43 348.84 L0 348.84 L0 383.43 Z" class="st12"/>
		</g>
		<g id="shape25-35" v:mID="25" v:groupContext="shape" transform="translate(-131.335,394.529) rotate(-135)">
			<title>工作表.25</title>
			<path d="M1.7 371.37 L0 375.9 L0.92 375.9 L0.92 383.43 L2.48 383.43 L2.48 375.9 L3.41 375.9 L1.7 371.37 Z" class="st13"/>
		</g>
		<g id="shape29-37" v:mID="29" v:groupContext="shape" transform="translate(86.69,-222.044)">
			<title>工作表.29</title>
			<desc>Deeplabv3+</desc>
			<v:textBlock v:margins="rect(4,4,4,4)" v:tabSpace="42.5197"/>
			<v:textRect cx="33.0236" cy="376.624" width="66.05" height="13.6063"/>
			<rect x="0" y="369.821" width="66.0472" height="13.6063" class="st14"/>
			<text x="4.07" y="380.22" class="st15" v:langID="2052"><v:paragraph v:horizAlign="1"/><v:tabList/>Deeplabv3+</text>		</g>
		<g id="shape33-40" v:mID="33" v:groupContext="shape" transform="translate(166.769,-204.469)">
			<title>工作表.33</title>
			<path d="M0 383.43 L71.43 383.43 L71.43 348.84 L0 348.84 L0 383.43 Z" class="st12"/>
		</g>
		<g id="shape31-42" v:mID="31" v:groupContext="shape" transform="translate(175.937,-212.973)">
			<title>工作表.31</title>
			<desc>YOLO v8</desc>
			<v:textBlock v:margins="rect(4,4,4,4)" v:tabSpace="42.5197"/>
			<v:textRect cx="28.3465" cy="376.624" width="56.7" height="13.6063"/>
			<rect x="0" y="369.821" width="56.6929" height="13.6063" class="st14"/>
			<text x="7.85" y="380.22" class="st15" v:langID="2052"><v:paragraph v:horizAlign="1"/><v:tabList/>YOLO v8</text>		</g>
		<g id="shape35-45" v:mID="35" v:groupContext="shape" transform="translate(455.381,392.122) rotate(135)">
			<title>工作表.35</title>
			<path d="M1.7 371.37 L0 375.9 L0.92 375.9 L0.92 383.43 L2.48 383.43 L2.48 375.9 L3.41 375.9 L1.7 371.37 Z" class="st13"/>
		</g>
		<g id="shape36-47" v:mID="36" v:groupContext="shape" transform="translate(181.438,569.471) rotate(180)">
			<title>工作表.36</title>
			<path d="M19.84 361.86 L0 369.95 L10.74 369.95 L10.74 383.43 L28.95 383.43 L28.95 369.95 L39.69 369.95 L19.84 361.86 Z"
					class="st16"/>
		</g>
		<g id="shape40-49" v:mID="40" v:groupContext="shape" transform="translate(89.5246,-108.092)">
			<title>工作表.40</title>
			<path d="M0 383.43 L66.05 383.43 L66.05 361.86 L0 361.86 L0 383.43 Z" class="st12"/>
		</g>
		<g id="shape37-51" v:mID="37" v:groupContext="shape" transform="translate(97.7451,-111.789)">
			<title>工作表.37</title>
			<desc>TVLMPs</desc>
			<v:textBlock v:margins="rect(4,4,4,4)" v:tabSpace="42.5197"/>
			<v:textRect cx="24.8031" cy="376.341" width="49.61" height="14.1732"/>
			<rect x="0" y="369.254" width="49.6063" height="14.1732" class="st14"/>
			<text x="5.38" y="379.94" class="st15" v:langID="2052"><v:paragraph v:horizAlign="1"/><v:tabList/>TVLMPs</text>		</g>
		<g id="shape41-54" v:mID="41" v:groupContext="shape" transform="translate(167.903,-108.092)">
			<title>工作表.41</title>
			<path d="M0 383.43 L66.05 383.43 L66.05 361.86 L0 361.86 L0 383.43 Z" class="st12"/>
		</g>
		<g id="shape38-56" v:mID="38" v:groupContext="shape" transform="translate(176.123,-111.789)">
			<title>工作表.38</title>
			<desc>SVLMPs</desc>
			<v:textBlock v:margins="rect(4,4,4,4)" v:tabSpace="42.5197"/>
			<v:textRect cx="24.8031" cy="376.341" width="49.61" height="14.1732"/>
			<rect x="0" y="369.254" width="49.6063" height="14.1732" class="st14"/>
			<text x="5.54" y="379.94" class="st15" v:langID="2052"><v:paragraph v:horizAlign="1"/><v:tabList/>SVLMPs</text>		</g>
		<g id="shape42-59" v:mID="42" v:groupContext="shape" transform="translate(181.438,672.074) rotate(180)">
			<title>工作表.42</title>
			<path d="M19.84 361.86 L0 369.95 L10.74 369.95 L10.74 383.43 L28.95 383.43 L28.95 369.95 L39.69 369.95 L19.84 361.86 Z"
					class="st17"/>
		</g>
		<g id="shape49-61" v:mID="49" v:groupContext="shape" transform="translate(11.0049,-146.643)">
			<title>工作表.49</title>
			<desc>TVDs</desc>
			<v:textBlock v:margins="rect(4,4,4,4)" v:tabSpace="42.5197"/>
			<v:textRect cx="17.7165" cy="376.624" width="35.44" height="13.6063"/>
			<rect x="0" y="369.821" width="35.4331" height="13.6063" class="st14"/>
			<text x="5.35" y="380.22" class="st15" v:langID="2052"><v:paragraph v:horizAlign="1"/><v:tabList/>TVDs</text>		</g>
		<g id="shape50-64" v:mID="50" v:groupContext="shape" transform="translate(274.627,-146.926)">
			<title>工作表.50</title>
			<desc>SVDs</desc>
			<v:textBlock v:margins="rect(4,4,4,4)" v:tabSpace="42.5197"/>
			<v:textRect cx="17.7165" cy="376.624" width="35.44" height="13.6063"/>
			<rect x="0" y="369.821" width="35.4331" height="13.6063" class="st14"/>
			<text x="5.52" y="380.22" class="st15" v:langID="2052"><v:paragraph v:horizAlign="1"/><v:tabList/>SVDs</text>		</g>
		<g id="shape30-67" v:mID="30" v:groupContext="shape" transform="translate(87.5404,-206.454)">
			<title>工作表.30</title>
			<desc>U-net</desc>
			<v:textBlock v:margins="rect(4,4,4,4)" v:tabSpace="42.5197"/>
			<v:textRect cx="28.3465" cy="376.624" width="56.7" height="13.6063"/>
			<rect x="0" y="369.821" width="56.6929" height="13.6063" class="st14"/>
			<text x="14.51" y="380.22" class="st15" v:langID="2052"><v:paragraph v:horizAlign="1"/><v:tabList/>U-net</text>		</g>
		<g id="shape51-70" v:mID="51" v:groupContext="shape" transform="translate(76.8732,-239.052)">
			<title>工作表.51</title>
			<desc>Semantic segmentation</desc>
			<v:textBlock v:margins="rect(4,4,4,4)" v:tabSpace="42.5197"/>
			<v:textRect cx="43.2656" cy="376.624" width="86.54" height="13.6063"/>
			<rect x="0" y="369.821" width="86.5313" height="13.6063" class="st6"/>
			<text x="4.92" y="379.02" class="st18" v:langID="2052"><v:paragraph v:horizAlign="1"/><v:tabList/>Semantic segmentation</text>		</g>
		<g id="shape52-73" v:mID="52" v:groupContext="shape" transform="translate(162.481,-239.052)">
			<title>工作表.52</title>
			<desc>Object detection</desc>
			<v:textBlock v:margins="rect(4,4,4,4)" v:tabSpace="42.5197"/>
			<v:textRect cx="39.8622" cy="376.624" width="79.73" height="13.6063"/>
			<rect x="0" y="369.821" width="79.7244" height="13.6063" class="st6"/>
			<text x="12.65" y="379.02" class="st18" v:langID="2052"><v:paragraph v:horizAlign="1"/><v:tabList/>Object detection</text>		</g>
		<g id="shape53-76" v:mID="53" v:groupContext="shape" transform="translate(45.0207,-119.43)">
			<title>工作表.53</title>
			<path d="M107.47 315.4 L0 315.4 L0 383.43 L37.96 383.43" class="st19"/>
		</g>
		<g id="group55-82" transform="translate(171.41,-119.714)" v:mID="55" v:groupContext="group">
			<title>工作表.55</title>
			<g id="shape54-83" v:mID="54" v:groupContext="shape" transform="translate(107.469,5.68434E-14) scale(-1,1)">
				<title>工作表.54</title>
				<path d="M107.47 315.4 L0 315.4 L0 383.43 L37.96 383.43" class="st19"/>
			</g>
		</g>
	</g>
</svg>
