<?xml version="1.0" encoding="UTF-8"?>
<svg id="_图层_2" data-name="图层 2" xmlns="http://www.w3.org/2000/svg" xmlns:xlink="http://www.w3.org/1999/xlink" viewBox="0 0 424.88 409.13">
  <defs>
    <style>
      .cls-1 {
        fill: #4d4d4d;
      }

      .cls-2 {
        stroke-dasharray: 0 0 8.96 8.96;
        stroke-width: 2.24px;
      }

      .cls-2, .cls-3, .cls-4, .cls-5, .cls-6 {
        stroke-linejoin: round;
      }

      .cls-2, .cls-3, .cls-4, .cls-7, .cls-6 {
        fill: none;
      }

      .cls-2, .cls-5, .cls-6 {
        stroke: #000;
      }

      .cls-8 {
        fill: #9b434b;
      }

      .cls-8, .cls-6 {
        opacity: .4;
      }

      .cls-3, .cls-4 {
        stroke: #333;
        stroke-width: 1.07px;
      }

      .cls-4, .cls-6 {
        stroke-linecap: round;
      }

      .cls-5 {
        fill: #c1272d;
        stroke-width: 2.13px;
      }

      .cls-9 {
        clip-path: url(#clippath);
      }

      .cls-6 {
        stroke-width: .71px;
      }
    </style>
    <clipPath id="clippath">
      <rect class="cls-7" x="55.45" width="369.43" height="369.43"/>
    </clipPath>
  </defs>
  <g id="_图层_1-2" data-name="图层 1">
    <g class="cls-9">
      <g>
        <path class="cls-8" d="M165.17,205c0-4.3,3.52-7.82,7.82-7.82s7.83,3.52,7.83,7.82-3.52,7.83-7.83,7.83-7.82-3.52-7.82-7.83"/>
        <path class="cls-6" d="M165.17,205c0-4.3,3.52-7.82,7.82-7.82s7.83,3.52,7.83,7.82-3.52,7.83-7.83,7.83-7.82-3.52-7.82-7.83"/>
      </g>
      <g>
        <path class="cls-8" d="M171.89,192.4c0-4.3,3.52-7.82,7.82-7.82s7.82,3.52,7.82,7.82-3.52,7.83-7.82,7.83-7.82-3.52-7.82-7.83"/>
        <path class="cls-6" d="M171.89,192.4c0-4.3,3.52-7.82,7.82-7.82s7.82,3.52,7.82,7.82-3.52,7.83-7.82,7.83-7.82-3.52-7.82-7.83"/>
      </g>
      <g>
        <path class="cls-8" d="M188.74,181.02c0-4.3,3.52-7.82,7.82-7.82s7.82,3.52,7.82,7.82-3.52,7.83-7.82,7.83-7.82-3.52-7.82-7.83"/>
        <path class="cls-6" d="M188.74,181.02c0-4.3,3.52-7.82,7.82-7.82s7.82,3.52,7.82,7.82-3.52,7.83-7.82,7.83-7.82-3.52-7.82-7.83"/>
      </g>
      <g>
        <path class="cls-8" d="M198.57,170.64c0-4.3,3.52-7.82,7.82-7.82s7.83,3.52,7.83,7.82-3.52,7.82-7.83,7.82-7.82-3.52-7.82-7.82"/>
        <path class="cls-6" d="M198.57,170.64c0-4.3,3.52-7.82,7.82-7.82s7.83,3.52,7.83,7.82-3.52,7.82-7.83,7.82-7.82-3.52-7.82-7.82"/>
      </g>
      <g>
        <path class="cls-8" d="M224.78,160.45c0-4.31,3.52-7.83,7.82-7.83s7.82,3.52,7.82,7.83-3.52,7.82-7.82,7.82-7.82-3.52-7.82-7.82"/>
        <path class="cls-6" d="M224.78,160.45c0-4.31,3.52-7.83,7.82-7.83s7.82,3.52,7.82,7.83-3.52,7.82-7.82,7.82-7.82-3.52-7.82-7.82"/>
      </g>
      <g>
        <path class="cls-8" d="M228.46,158.05c0-4.31,3.52-7.83,7.82-7.83s7.82,3.52,7.82,7.83-3.52,7.82-7.82,7.82-7.82-3.52-7.82-7.82"/>
        <path class="cls-6" d="M228.46,158.05c0-4.31,3.52-7.83,7.82-7.83s7.82,3.52,7.82,7.83-3.52,7.82-7.82,7.82-7.82-3.52-7.82-7.82"/>
      </g>
      <g>
        <path class="cls-8" d="M237.31,163.98c0-4.3,3.52-7.82,7.82-7.82s7.82,3.52,7.82,7.82-3.52,7.82-7.82,7.82-7.82-3.52-7.82-7.82"/>
        <path class="cls-6" d="M237.31,163.98c0-4.3,3.52-7.82,7.82-7.82s7.82,3.52,7.82,7.82-3.52,7.82-7.82,7.82-7.82-3.52-7.82-7.82"/>
      </g>
      <g>
        <path class="cls-8" d="M246.25,159.88c0-4.3,3.52-7.83,7.82-7.83s7.83,3.53,7.83,7.83-3.52,7.82-7.83,7.82-7.82-3.52-7.82-7.82"/>
        <path class="cls-6" d="M246.25,159.88c0-4.3,3.52-7.83,7.82-7.83s7.83,3.53,7.83,7.83-3.52,7.82-7.83,7.82-7.82-3.52-7.82-7.82"/>
      </g>
      <g>
        <path class="cls-8" d="M253.66,146.44c0-4.3,3.52-7.82,7.82-7.82s7.82,3.52,7.82,7.82-3.52,7.82-7.82,7.82-7.82-3.52-7.82-7.82"/>
        <path class="cls-6" d="M253.66,146.44c0-4.3,3.52-7.82,7.82-7.82s7.82,3.52,7.82,7.82-3.52,7.82-7.82,7.82-7.82-3.52-7.82-7.82"/>
      </g>
      <g>
        <path class="cls-8" d="M271.82,130.31c0-4.3,3.52-7.82,7.82-7.82s7.83,3.52,7.83,7.82-3.52,7.83-7.83,7.83-7.82-3.52-7.82-7.83"/>
        <path class="cls-6" d="M271.82,130.31c0-4.3,3.52-7.82,7.82-7.82s7.83,3.52,7.83,7.82-3.52,7.83-7.83,7.83-7.82-3.52-7.82-7.83"/>
      </g>
      <g>
        <path class="cls-8" d="M272.18,117.19c0-4.31,3.52-7.83,7.82-7.83s7.82,3.52,7.82,7.83-3.52,7.82-7.82,7.82-7.82-3.52-7.82-7.82"/>
        <path class="cls-6" d="M272.18,117.19c0-4.31,3.52-7.83,7.82-7.83s7.82,3.52,7.82,7.83-3.52,7.82-7.82,7.82-7.82-3.52-7.82-7.82"/>
      </g>
      <g>
        <path class="cls-8" d="M283.77,111.2c0-4.31,3.52-7.83,7.82-7.83s7.82,3.52,7.82,7.83-3.52,7.82-7.82,7.82-7.82-3.52-7.82-7.82"/>
        <path class="cls-6" d="M283.77,111.2c0-4.31,3.52-7.83,7.82-7.83s7.82,3.52,7.82,7.83-3.52,7.82-7.82,7.82-7.82-3.52-7.82-7.82"/>
      </g>
      <g>
        <path class="cls-8" d="M294.65,99.65c0-4.31,3.52-7.83,7.82-7.83s7.83,3.52,7.83,7.83-3.52,7.82-7.83,7.82-7.82-3.52-7.82-7.82"/>
        <path class="cls-6" d="M294.65,99.65c0-4.31,3.52-7.83,7.82-7.83s7.83,3.52,7.83,7.83-3.52,7.82-7.83,7.82-7.82-3.52-7.82-7.82"/>
      </g>
      <g>
        <path class="cls-8" d="M303.07,93.23c0-4.3,3.52-7.82,7.83-7.82s7.82,3.52,7.82,7.82-3.52,7.82-7.82,7.82-7.83-3.52-7.83-7.82"/>
        <path class="cls-6" d="M303.07,93.23c0-4.3,3.52-7.82,7.83-7.82s7.82,3.52,7.82,7.82-3.52,7.82-7.82,7.82-7.83-3.52-7.83-7.82"/>
      </g>
      <g>
        <path class="cls-8" d="M311.59,94c0-4.31,3.52-7.83,7.82-7.83s7.83,3.52,7.83,7.83-3.52,7.82-7.83,7.82-7.82-3.52-7.82-7.82"/>
        <path class="cls-6" d="M311.59,94c0-4.31,3.52-7.83,7.82-7.83s7.83,3.52,7.83,7.83-3.52,7.82-7.83,7.82-7.82-3.52-7.82-7.82"/>
      </g>
      <g>
        <path class="cls-8" d="M309.26,83.69c0-4.3,3.52-7.82,7.82-7.82s7.83,3.52,7.83,7.82-3.52,7.83-7.83,7.83-7.82-3.52-7.82-7.83"/>
        <path class="cls-6" d="M309.26,83.69c0-4.3,3.52-7.82,7.82-7.82s7.83,3.52,7.83,7.82-3.52,7.83-7.83,7.83-7.82-3.52-7.82-7.83"/>
      </g>
      <g>
        <path class="cls-8" d="M319.01,79.95c0-4.3,3.52-7.82,7.82-7.82s7.83,3.52,7.83,7.82-3.52,7.83-7.83,7.83-7.82-3.52-7.82-7.83"/>
        <path class="cls-6" d="M319.01,79.95c0-4.3,3.52-7.82,7.82-7.82s7.83,3.52,7.83,7.82-3.52,7.83-7.83,7.83-7.82-3.52-7.82-7.83"/>
      </g>
      <g>
        <path class="cls-8" d="M316.3,85.44c0-4.31,3.52-7.83,7.83-7.83s7.82,3.52,7.82,7.83-3.52,7.82-7.82,7.82-7.83-3.52-7.83-7.82"/>
        <path class="cls-6" d="M316.3,85.44c0-4.31,3.52-7.83,7.83-7.83s7.82,3.52,7.82,7.83-3.52,7.82-7.82,7.82-7.83-3.52-7.83-7.82"/>
      </g>
      <g>
        <path class="cls-8" d="M319.35,85.22c0-4.3,3.52-7.82,7.82-7.82s7.83,3.52,7.83,7.82-3.52,7.82-7.83,7.82-7.82-3.52-7.82-7.82"/>
        <path class="cls-6" d="M319.35,85.22c0-4.3,3.52-7.82,7.82-7.82s7.83,3.52,7.83,7.82-3.52,7.82-7.83,7.82-7.82-3.52-7.82-7.82"/>
      </g>
      <g>
        <path class="cls-8" d="M348.77,83.02c0-4.31,3.52-7.83,7.82-7.83s7.82,3.52,7.82,7.83-3.52,7.82-7.82,7.82-7.82-3.52-7.82-7.82"/>
        <path class="cls-6" d="M348.77,83.02c0-4.31,3.52-7.83,7.82-7.83s7.82,3.52,7.82,7.83-3.52,7.82-7.82,7.82-7.82-3.52-7.82-7.82"/>
      </g>
      <g>
        <path class="cls-8" d="M348.34,85.61c0-4.3,3.52-7.82,7.82-7.82s7.83,3.52,7.83,7.82-3.52,7.82-7.83,7.82-7.82-3.52-7.82-7.82"/>
        <path class="cls-6" d="M348.34,85.61c0-4.3,3.52-7.82,7.82-7.82s7.83,3.52,7.83,7.82-3.52,7.82-7.83,7.82-7.82-3.52-7.82-7.82"/>
      </g>
      <g>
        <path class="cls-8" d="M339.93,95.9c0-4.3,3.52-7.82,7.82-7.82s7.82,3.52,7.82,7.82-3.52,7.82-7.82,7.82-7.82-3.52-7.82-7.82"/>
        <path class="cls-6" d="M339.93,95.9c0-4.3,3.52-7.82,7.82-7.82s7.82,3.52,7.82,7.82-3.52,7.82-7.82,7.82-7.82-3.52-7.82-7.82"/>
      </g>
      <g>
        <path class="cls-8" d="M347.36,88.54c0-4.3,3.52-7.82,7.82-7.82s7.82,3.52,7.82,7.82-3.52,7.83-7.82,7.83-7.82-3.52-7.82-7.83"/>
        <path class="cls-6" d="M347.36,88.54c0-4.3,3.52-7.82,7.82-7.82s7.82,3.52,7.82,7.82-3.52,7.83-7.82,7.83-7.82-3.52-7.82-7.83"/>
      </g>
      <g>
        <path class="cls-8" d="M332.65,84.67c0-4.3,3.52-7.83,7.82-7.83s7.83,3.53,7.83,7.83-3.52,7.82-7.83,7.82-7.82-3.52-7.82-7.82"/>
        <path class="cls-6" d="M332.65,84.67c0-4.3,3.52-7.83,7.82-7.83s7.83,3.53,7.83,7.83-3.52,7.82-7.83,7.82-7.82-3.52-7.82-7.82"/>
      </g>
      <g>
        <path class="cls-8" d="M305.67,105.89c0-4.3,3.52-7.82,7.83-7.82s7.82,3.52,7.82,7.82-3.52,7.82-7.82,7.82-7.83-3.52-7.83-7.82"/>
        <path class="cls-6" d="M305.67,105.89c0-4.3,3.52-7.82,7.83-7.82s7.82,3.52,7.82,7.82-3.52,7.82-7.82,7.82-7.83-3.52-7.83-7.82"/>
      </g>
      <g>
        <path class="cls-8" d="M232.34,162.57c0-4.3,3.52-7.82,7.82-7.82s7.83,3.52,7.83,7.82-3.52,7.82-7.83,7.82-7.82-3.52-7.82-7.82"/>
        <path class="cls-6" d="M232.34,162.57c0-4.3,3.52-7.82,7.82-7.82s7.83,3.52,7.83,7.82-3.52,7.82-7.83,7.82-7.82-3.52-7.82-7.82"/>
      </g>
      <g>
        <path class="cls-8" d="M175.46,192.49c0-4.3,3.52-7.82,7.83-7.82s7.82,3.52,7.82,7.82-3.52,7.82-7.82,7.82-7.83-3.52-7.83-7.82"/>
        <path class="cls-6" d="M175.46,192.49c0-4.3,3.52-7.82,7.83-7.82s7.82,3.52,7.82,7.82-3.52,7.82-7.82,7.82-7.83-3.52-7.83-7.82"/>
      </g>
      <g>
        <path class="cls-8" d="M139.24,188.05c0-4.3,3.52-7.82,7.83-7.82s7.82,3.52,7.82,7.82-3.52,7.82-7.82,7.82-7.83-3.52-7.83-7.82"/>
        <path class="cls-6" d="M139.24,188.05c0-4.3,3.52-7.82,7.83-7.82s7.82,3.52,7.82,7.82-3.52,7.82-7.82,7.82-7.83-3.52-7.83-7.82"/>
      </g>
      <g>
        <path class="cls-8" d="M138.66,194.83c0-4.31,3.52-7.83,7.82-7.83s7.82,3.52,7.82,7.83-3.52,7.82-7.82,7.82-7.82-3.52-7.82-7.82"/>
        <path class="cls-6" d="M138.66,194.83c0-4.31,3.52-7.83,7.82-7.83s7.82,3.52,7.82,7.83-3.52,7.82-7.82,7.82-7.82-3.52-7.82-7.82"/>
      </g>
      <g>
        <path class="cls-8" d="M159.17,183.73c0-4.3,3.52-7.83,7.82-7.83s7.82,3.53,7.82,7.83-3.52,7.82-7.82,7.82-7.82-3.52-7.82-7.82"/>
        <path class="cls-6" d="M159.17,183.73c0-4.3,3.52-7.83,7.82-7.83s7.82,3.53,7.82,7.83-3.52,7.82-7.82,7.82-7.82-3.52-7.82-7.82"/>
      </g>
      <g>
        <path class="cls-8" d="M186.54,173.57c0-4.3,3.52-7.82,7.83-7.82s7.82,3.52,7.82,7.82-3.52,7.82-7.82,7.82-7.83-3.52-7.83-7.82"/>
        <path class="cls-6" d="M186.54,173.57c0-4.3,3.52-7.82,7.83-7.82s7.82,3.52,7.82,7.82-3.52,7.82-7.82,7.82-7.83-3.52-7.83-7.82"/>
      </g>
      <g>
        <path class="cls-8" d="M232.34,176.25c0-4.31,3.52-7.83,7.82-7.83s7.83,3.52,7.83,7.83-3.52,7.82-7.83,7.82-7.82-3.52-7.82-7.82"/>
        <path class="cls-6" d="M232.34,176.25c0-4.31,3.52-7.83,7.82-7.83s7.83,3.52,7.83,7.83-3.52,7.82-7.83,7.82-7.82-3.52-7.82-7.82"/>
      </g>
      <g>
        <path class="cls-8" d="M243.86,166.48c0-4.3,3.52-7.82,7.82-7.82s7.82,3.52,7.82,7.82-3.52,7.83-7.82,7.83-7.82-3.52-7.82-7.83"/>
        <path class="cls-6" d="M243.86,166.48c0-4.3,3.52-7.82,7.82-7.82s7.82,3.52,7.82,7.82-3.52,7.83-7.82,7.83-7.82-3.52-7.82-7.83"/>
      </g>
      <g>
        <path class="cls-8" d="M248.75,154.83c0-4.31,3.52-7.83,7.82-7.83s7.82,3.52,7.82,7.83-3.52,7.82-7.82,7.82-7.82-3.52-7.82-7.82"/>
        <path class="cls-6" d="M248.75,154.83c0-4.31,3.52-7.83,7.82-7.83s7.82,3.52,7.82,7.83-3.52,7.82-7.82,7.82-7.82-3.52-7.82-7.82"/>
      </g>
      <g>
        <path class="cls-8" d="M261.86,161.01c0-4.3,3.52-7.82,7.82-7.82s7.83,3.52,7.83,7.82-3.52,7.82-7.83,7.82-7.82-3.52-7.82-7.82"/>
        <path class="cls-6" d="M261.86,161.01c0-4.3,3.52-7.82,7.82-7.82s7.83,3.52,7.83,7.82-3.52,7.82-7.83,7.82-7.82-3.52-7.82-7.82"/>
      </g>
      <g>
        <path class="cls-8" d="M280.76,107.88c0-4.3,3.52-7.82,7.82-7.82s7.83,3.52,7.83,7.82-3.52,7.83-7.83,7.83-7.82-3.53-7.82-7.83"/>
        <path class="cls-6" d="M280.76,107.88c0-4.3,3.52-7.82,7.82-7.82s7.83,3.52,7.83,7.82-3.52,7.83-7.83,7.83-7.82-3.53-7.82-7.83"/>
      </g>
      <g>
        <path class="cls-8" d="M276.75,63.02c0-4.3,3.52-7.82,7.82-7.82s7.82,3.52,7.82,7.82-3.52,7.82-7.82,7.82-7.82-3.52-7.82-7.82"/>
        <path class="cls-6" d="M276.75,63.02c0-4.3,3.52-7.82,7.82-7.82s7.82,3.52,7.82,7.82-3.52,7.82-7.82,7.82-7.82-3.52-7.82-7.82"/>
      </g>
      <g>
        <path class="cls-8" d="M290.41,38.88c0-4.3,3.52-7.83,7.82-7.83s7.82,3.53,7.82,7.83-3.52,7.82-7.82,7.82-7.82-3.52-7.82-7.82"/>
        <path class="cls-6" d="M290.41,38.88c0-4.3,3.52-7.83,7.82-7.83s7.82,3.53,7.82,7.83-3.52,7.82-7.82,7.82-7.82-3.52-7.82-7.82"/>
      </g>
      <g>
        <path class="cls-8" d="M289.3,52.37c0-4.3,3.52-7.82,7.82-7.82s7.82,3.52,7.82,7.82-3.52,7.82-7.82,7.82-7.82-3.52-7.82-7.82"/>
        <path class="cls-6" d="M289.3,52.37c0-4.3,3.52-7.82,7.82-7.82s7.82,3.52,7.82,7.82-3.52,7.82-7.82,7.82-7.82-3.52-7.82-7.82"/>
      </g>
      <g>
        <path class="cls-8" d="M301.55,31.84c0-4.3,3.52-7.82,7.82-7.82s7.82,3.52,7.82,7.82-3.52,7.83-7.82,7.83-7.82-3.53-7.82-7.83"/>
        <path class="cls-6" d="M301.55,31.84c0-4.3,3.52-7.82,7.82-7.82s7.82,3.52,7.82,7.82-3.52,7.83-7.82,7.83-7.82-3.53-7.82-7.83"/>
      </g>
      <g>
        <path class="cls-8" d="M255.9,63.98c0-4.3,3.52-7.82,7.82-7.82s7.83,3.52,7.83,7.82-3.52,7.82-7.83,7.82-7.82-3.52-7.82-7.82"/>
        <path class="cls-6" d="M255.9,63.98c0-4.3,3.52-7.82,7.82-7.82s7.83,3.52,7.83,7.82-3.52,7.82-7.83,7.82-7.82-3.52-7.82-7.82"/>
      </g>
      <g>
        <path class="cls-8" d="M238.6,126.83c0-4.3,3.52-7.82,7.82-7.82s7.82,3.52,7.82,7.82-3.52,7.83-7.82,7.83-7.82-3.52-7.82-7.83"/>
        <path class="cls-6" d="M238.6,126.83c0-4.3,3.52-7.82,7.82-7.82s7.82,3.52,7.82,7.82-3.52,7.83-7.82,7.83-7.82-3.52-7.82-7.83"/>
      </g>
      <g>
        <path class="cls-8" d="M162.52,152c0-4.31,3.52-7.83,7.82-7.83s7.82,3.52,7.82,7.83-3.52,7.82-7.82,7.82-7.82-3.52-7.82-7.82"/>
        <path class="cls-6" d="M162.52,152c0-4.31,3.52-7.83,7.82-7.83s7.82,3.52,7.82,7.83-3.52,7.82-7.82,7.82-7.82-3.52-7.82-7.82"/>
      </g>
      <g>
        <path class="cls-8" d="M165.27,173.91c0-4.31,3.52-7.83,7.82-7.83s7.83,3.52,7.83,7.83-3.52,7.82-7.83,7.82-7.82-3.52-7.82-7.82"/>
        <path class="cls-6" d="M165.27,173.91c0-4.31,3.52-7.83,7.82-7.83s7.83,3.52,7.83,7.83-3.52,7.82-7.83,7.82-7.82-3.52-7.82-7.82"/>
      </g>
      <g>
        <path class="cls-8" d="M141.56,164.38c0-4.31,3.52-7.83,7.82-7.83s7.82,3.52,7.82,7.83-3.52,7.82-7.82,7.82-7.82-3.52-7.82-7.82"/>
        <path class="cls-6" d="M141.56,164.38c0-4.31,3.52-7.83,7.82-7.83s7.82,3.52,7.82,7.83-3.52,7.82-7.82,7.82-7.82-3.52-7.82-7.82"/>
      </g>
      <g>
        <path class="cls-8" d="M162.57,166.51c0-4.3,3.52-7.82,7.82-7.82s7.83,3.52,7.83,7.82-3.52,7.82-7.83,7.82-7.82-3.52-7.82-7.82"/>
        <path class="cls-6" d="M162.57,166.51c0-4.3,3.52-7.82,7.82-7.82s7.83,3.52,7.83,7.82-3.52,7.82-7.83,7.82-7.82-3.52-7.82-7.82"/>
      </g>
      <g>
        <path class="cls-8" d="M196.36,160.27c0-4.3,3.52-7.82,7.82-7.82s7.82,3.52,7.82,7.82-3.52,7.82-7.82,7.82-7.82-3.52-7.82-7.82"/>
        <path class="cls-6" d="M196.36,160.27c0-4.3,3.52-7.82,7.82-7.82s7.82,3.52,7.82,7.82-3.52,7.82-7.82,7.82-7.82-3.52-7.82-7.82"/>
      </g>
      <g>
        <path class="cls-8" d="M210.44,160.62c0-4.31,3.52-7.83,7.82-7.83s7.82,3.52,7.82,7.83-3.52,7.82-7.82,7.82-7.82-3.52-7.82-7.82"/>
        <path class="cls-6" d="M210.44,160.62c0-4.31,3.52-7.83,7.82-7.83s7.82,3.52,7.82,7.83-3.52,7.82-7.82,7.82-7.82-3.52-7.82-7.82"/>
      </g>
      <g>
        <path class="cls-8" d="M257.71,145.97c0-4.3,3.52-7.82,7.82-7.82s7.83,3.52,7.83,7.82-3.52,7.83-7.83,7.83-7.82-3.53-7.82-7.83"/>
        <path class="cls-6" d="M257.71,145.97c0-4.3,3.52-7.82,7.82-7.82s7.83,3.52,7.83,7.82-3.52,7.83-7.83,7.83-7.82-3.53-7.82-7.83"/>
      </g>
      <g>
        <path class="cls-8" d="M264.24,141.19c0-4.3,3.52-7.82,7.82-7.82s7.83,3.52,7.83,7.82-3.52,7.83-7.83,7.83-7.82-3.52-7.82-7.83"/>
        <path class="cls-6" d="M264.24,141.19c0-4.3,3.52-7.82,7.82-7.82s7.83,3.52,7.83,7.82-3.52,7.83-7.83,7.83-7.82-3.52-7.82-7.83"/>
      </g>
      <g>
        <path class="cls-8" d="M294.53,126.34c0-4.31,3.52-7.83,7.83-7.83s7.82,3.52,7.82,7.83-3.52,7.82-7.82,7.82-7.83-3.52-7.83-7.82"/>
        <path class="cls-6" d="M294.53,126.34c0-4.31,3.52-7.83,7.83-7.83s7.82,3.52,7.82,7.83-3.52,7.82-7.82,7.82-7.83-3.52-7.83-7.82"/>
      </g>
      <g>
        <path class="cls-8" d="M316.96,125.8c0-4.3,3.52-7.82,7.83-7.82s7.82,3.52,7.82,7.82-3.52,7.83-7.82,7.83-7.83-3.52-7.83-7.83"/>
        <path class="cls-6" d="M316.96,125.8c0-4.3,3.52-7.82,7.83-7.82s7.82,3.52,7.82,7.82-3.52,7.83-7.82,7.83-7.83-3.52-7.83-7.83"/>
      </g>
      <g>
        <path class="cls-8" d="M322.87,137.76c0-4.31,3.52-7.83,7.82-7.83s7.82,3.52,7.82,7.83-3.52,7.82-7.82,7.82-7.82-3.52-7.82-7.82"/>
        <path class="cls-6" d="M322.87,137.76c0-4.31,3.52-7.83,7.82-7.83s7.82,3.52,7.82,7.83-3.52,7.82-7.82,7.82-7.82-3.52-7.82-7.82"/>
      </g>
      <g>
        <path class="cls-8" d="M266.42,152.6c0-4.3,3.52-7.82,7.82-7.82s7.83,3.52,7.83,7.82-3.52,7.82-7.83,7.82-7.82-3.52-7.82-7.82"/>
        <path class="cls-6" d="M266.42,152.6c0-4.3,3.52-7.82,7.82-7.82s7.83,3.52,7.83,7.82-3.52,7.82-7.83,7.82-7.82-3.52-7.82-7.82"/>
      </g>
      <g>
        <path class="cls-8" d="M211.49,188.14c0-4.31,3.53-7.83,7.83-7.83s7.82,3.52,7.82,7.83-3.52,7.82-7.82,7.82-7.83-3.52-7.83-7.82"/>
        <path class="cls-6" d="M211.49,188.14c0-4.31,3.53-7.83,7.83-7.83s7.82,3.52,7.82,7.83-3.52,7.82-7.82,7.82-7.83-3.52-7.83-7.82"/>
      </g>
      <g>
        <path class="cls-8" d="M203.59,197.68c0-4.3,3.52-7.82,7.82-7.82s7.82,3.52,7.82,7.82-3.52,7.82-7.82,7.82-7.82-3.52-7.82-7.82"/>
        <path class="cls-6" d="M203.59,197.68c0-4.3,3.52-7.82,7.82-7.82s7.82,3.52,7.82,7.82-3.52,7.82-7.82,7.82-7.82-3.52-7.82-7.82"/>
      </g>
      <g>
        <path class="cls-8" d="M186.35,197.27c0-4.3,3.52-7.82,7.82-7.82s7.82,3.52,7.82,7.82-3.52,7.82-7.82,7.82-7.82-3.52-7.82-7.82"/>
        <path class="cls-6" d="M186.35,197.27c0-4.3,3.52-7.82,7.82-7.82s7.82,3.52,7.82,7.82-3.52,7.82-7.82,7.82-7.82-3.52-7.82-7.82"/>
      </g>
      <g>
        <path class="cls-8" d="M171.72,211.93c0-4.3,3.52-7.82,7.82-7.82s7.82,3.52,7.82,7.82-3.52,7.83-7.82,7.83-7.82-3.52-7.82-7.83"/>
        <path class="cls-6" d="M171.72,211.93c0-4.3,3.52-7.82,7.82-7.82s7.82,3.52,7.82,7.82-3.52,7.83-7.82,7.83-7.82-3.52-7.82-7.83"/>
      </g>
      <g>
        <path class="cls-8" d="M166.86,195.26c0-4.3,3.52-7.82,7.82-7.82s7.83,3.52,7.83,7.82-3.52,7.82-7.83,7.82-7.82-3.52-7.82-7.82"/>
        <path class="cls-6" d="M166.86,195.26c0-4.3,3.52-7.82,7.82-7.82s7.83,3.52,7.83,7.82-3.52,7.82-7.83,7.82-7.82-3.52-7.82-7.82"/>
      </g>
      <g>
        <path class="cls-8" d="M158.81,204.35c0-4.3,3.52-7.82,7.82-7.82s7.82,3.52,7.82,7.82-3.52,7.82-7.82,7.82-7.82-3.52-7.82-7.82"/>
        <path class="cls-6" d="M158.81,204.35c0-4.3,3.52-7.82,7.82-7.82s7.82,3.52,7.82,7.82-3.52,7.82-7.82,7.82-7.82-3.52-7.82-7.82"/>
      </g>
      <g>
        <path class="cls-8" d="M142.32,203.6c0-4.31,3.53-7.83,7.83-7.83s7.82,3.52,7.82,7.83-3.52,7.82-7.82,7.82-7.83-3.52-7.83-7.82"/>
        <path class="cls-6" d="M142.32,203.6c0-4.31,3.53-7.83,7.83-7.83s7.82,3.52,7.82,7.83-3.52,7.82-7.82,7.82-7.83-3.52-7.83-7.82"/>
      </g>
      <g>
        <path class="cls-8" d="M134.64,211.21c0-4.3,3.52-7.83,7.82-7.83s7.83,3.53,7.83,7.83-3.52,7.82-7.83,7.82-7.82-3.52-7.82-7.82"/>
        <path class="cls-6" d="M134.64,211.21c0-4.3,3.52-7.83,7.82-7.83s7.83,3.53,7.83,7.83-3.52,7.82-7.83,7.82-7.82-3.52-7.82-7.82"/>
      </g>
      <g>
        <path class="cls-8" d="M128.24,205.25c0-4.3,3.52-7.82,7.82-7.82s7.82,3.52,7.82,7.82-3.52,7.82-7.82,7.82-7.82-3.52-7.82-7.82"/>
        <path class="cls-6" d="M128.24,205.25c0-4.3,3.52-7.82,7.82-7.82s7.82,3.52,7.82,7.82-3.52,7.82-7.82,7.82-7.82-3.52-7.82-7.82"/>
      </g>
      <g>
        <path class="cls-8" d="M124.64,208.03c0-4.3,3.53-7.82,7.83-7.82s7.82,3.52,7.82,7.82-3.52,7.82-7.82,7.82-7.83-3.52-7.83-7.82"/>
        <path class="cls-6" d="M124.64,208.03c0-4.3,3.53-7.82,7.83-7.82s7.82,3.52,7.82,7.82-3.52,7.82-7.82,7.82-7.83-3.52-7.83-7.82"/>
      </g>
      <g>
        <path class="cls-8" d="M125.29,213.84c0-4.3,3.52-7.82,7.82-7.82s7.83,3.52,7.83,7.82-3.53,7.82-7.83,7.82-7.82-3.52-7.82-7.82"/>
        <path class="cls-6" d="M125.29,213.84c0-4.3,3.52-7.82,7.82-7.82s7.83,3.52,7.83,7.82-3.53,7.82-7.83,7.82-7.82-3.52-7.82-7.82"/>
      </g>
      <g>
        <path class="cls-8" d="M164.55,202.19c0-4.31,3.52-7.83,7.82-7.83s7.82,3.52,7.82,7.83-3.52,7.82-7.82,7.82-7.82-3.52-7.82-7.82"/>
        <path class="cls-6" d="M164.55,202.19c0-4.31,3.52-7.83,7.82-7.83s7.82,3.52,7.82,7.83-3.52,7.82-7.82,7.82-7.82-3.52-7.82-7.82"/>
      </g>
      <g>
        <path class="cls-8" d="M205.13,196.05c0-4.31,3.53-7.83,7.83-7.83s7.82,3.52,7.82,7.83-3.52,7.82-7.82,7.82-7.83-3.52-7.83-7.82"/>
        <path class="cls-6" d="M205.13,196.05c0-4.31,3.53-7.83,7.83-7.83s7.82,3.52,7.82,7.83-3.52,7.82-7.82,7.82-7.83-3.52-7.83-7.82"/>
      </g>
      <g>
        <path class="cls-8" d="M250.42,152.75c0-4.3,3.52-7.82,7.83-7.82s7.82,3.52,7.82,7.82-3.52,7.83-7.82,7.83-7.83-3.52-7.83-7.83"/>
        <path class="cls-6" d="M250.42,152.75c0-4.3,3.52-7.82,7.83-7.82s7.82,3.52,7.82,7.82-3.52,7.83-7.82,7.83-7.83-3.52-7.83-7.83"/>
      </g>
      <g>
        <path class="cls-8" d="M282.04,143.2c0-4.3,3.52-7.82,7.82-7.82s7.82,3.52,7.82,7.82-3.52,7.83-7.82,7.83-7.82-3.52-7.82-7.83"/>
        <path class="cls-6" d="M282.04,143.2c0-4.3,3.52-7.82,7.82-7.82s7.82,3.52,7.82,7.82-3.52,7.83-7.82,7.83-7.82-3.52-7.82-7.83"/>
      </g>
      <g>
        <path class="cls-8" d="M300.91,127.92c0-4.31,3.52-7.83,7.83-7.83s7.82,3.52,7.82,7.83-3.52,7.82-7.82,7.82-7.83-3.52-7.83-7.82"/>
        <path class="cls-6" d="M300.91,127.92c0-4.31,3.52-7.83,7.83-7.83s7.82,3.52,7.82,7.83-3.52,7.82-7.82,7.82-7.83-3.52-7.83-7.82"/>
      </g>
      <g>
        <path class="cls-8" d="M321.5,113.13c0-4.3,3.52-7.82,7.82-7.82s7.83,3.52,7.83,7.82-3.53,7.82-7.83,7.82-7.82-3.52-7.82-7.82"/>
        <path class="cls-6" d="M321.5,113.13c0-4.3,3.52-7.82,7.82-7.82s7.83,3.52,7.83,7.82-3.53,7.82-7.83,7.82-7.82-3.52-7.82-7.82"/>
      </g>
      <g>
        <path class="cls-8" d="M308.21,117.77c0-4.31,3.52-7.83,7.82-7.83s7.83,3.52,7.83,7.83-3.52,7.82-7.83,7.82-7.82-3.52-7.82-7.82"/>
        <path class="cls-6" d="M308.21,117.77c0-4.31,3.52-7.83,7.82-7.83s7.83,3.52,7.83,7.83-3.52,7.82-7.83,7.82-7.82-3.52-7.82-7.82"/>
      </g>
      <g>
        <path class="cls-8" d="M301.73,131.6c0-4.3,3.53-7.82,7.83-7.82s7.82,3.52,7.82,7.82-3.52,7.83-7.82,7.83-7.83-3.53-7.83-7.83"/>
        <path class="cls-6" d="M301.73,131.6c0-4.3,3.53-7.82,7.83-7.82s7.82,3.52,7.82,7.82-3.52,7.83-7.82,7.83-7.83-3.53-7.83-7.83"/>
      </g>
      <g>
        <path class="cls-8" d="M281.23,146.64c0-4.3,3.52-7.82,7.82-7.82s7.83,3.52,7.83,7.82-3.52,7.82-7.83,7.82-7.82-3.52-7.82-7.82"/>
        <path class="cls-6" d="M281.23,146.64c0-4.3,3.52-7.82,7.82-7.82s7.83,3.52,7.83,7.82-3.52,7.82-7.83,7.82-7.82-3.52-7.82-7.82"/>
      </g>
      <g>
        <path class="cls-8" d="M261.92,147.84c0-4.3,3.52-7.82,7.82-7.82s7.82,3.52,7.82,7.82-3.52,7.82-7.82,7.82-7.82-3.52-7.82-7.82"/>
        <path class="cls-6" d="M261.92,147.84c0-4.3,3.52-7.82,7.82-7.82s7.82,3.52,7.82,7.82-3.52,7.82-7.82,7.82-7.82-3.52-7.82-7.82"/>
      </g>
      <g>
        <path class="cls-8" d="M235.77,171.93c0-4.31,3.52-7.83,7.82-7.83s7.82,3.52,7.82,7.83-3.52,7.82-7.82,7.82-7.82-3.52-7.82-7.82"/>
        <path class="cls-6" d="M235.77,171.93c0-4.31,3.52-7.83,7.82-7.83s7.82,3.52,7.82,7.83-3.52,7.82-7.82,7.82-7.82-3.52-7.82-7.82"/>
      </g>
      <g>
        <path class="cls-8" d="M220.38,179.55c0-4.3,3.52-7.82,7.82-7.82s7.83,3.52,7.83,7.82-3.52,7.83-7.83,7.83-7.82-3.53-7.82-7.83"/>
        <path class="cls-6" d="M220.38,179.55c0-4.3,3.52-7.82,7.82-7.82s7.83,3.52,7.83,7.82-3.52,7.83-7.83,7.83-7.82-3.53-7.82-7.83"/>
      </g>
      <g>
        <path class="cls-8" d="M207.67,176.73c0-4.3,3.52-7.82,7.83-7.82s7.82,3.52,7.82,7.82-3.52,7.82-7.82,7.82-7.83-3.52-7.83-7.82"/>
        <path class="cls-6" d="M207.67,176.73c0-4.3,3.52-7.82,7.83-7.82s7.82,3.52,7.82,7.82-3.52,7.82-7.82,7.82-7.83-3.52-7.83-7.82"/>
      </g>
      <g>
        <path class="cls-8" d="M191.17,182.15c0-4.3,3.52-7.82,7.82-7.82s7.83,3.52,7.83,7.82-3.53,7.82-7.83,7.82-7.82-3.52-7.82-7.82"/>
        <path class="cls-6" d="M191.17,182.15c0-4.3,3.52-7.82,7.82-7.82s7.83,3.52,7.83,7.82-3.53,7.82-7.83,7.82-7.82-3.52-7.82-7.82"/>
      </g>
      <g>
        <path class="cls-8" d="M219.5,186.7c0-4.3,3.52-7.82,7.82-7.82s7.82,3.52,7.82,7.82-3.52,7.82-7.82,7.82-7.82-3.52-7.82-7.82"/>
        <path class="cls-6" d="M219.5,186.7c0-4.3,3.52-7.82,7.82-7.82s7.82,3.52,7.82,7.82-3.52,7.82-7.82,7.82-7.82-3.52-7.82-7.82"/>
      </g>
      <g>
        <path class="cls-8" d="M203.72,178.58c0-4.3,3.52-7.82,7.82-7.82s7.82,3.52,7.82,7.82-3.52,7.82-7.82,7.82-7.82-3.52-7.82-7.82"/>
        <path class="cls-6" d="M203.72,178.58c0-4.3,3.52-7.82,7.82-7.82s7.82,3.52,7.82,7.82-3.52,7.82-7.82,7.82-7.82-3.52-7.82-7.82"/>
      </g>
      <g>
        <path class="cls-8" d="M216.06,169.29c0-4.31,3.52-7.83,7.82-7.83s7.83,3.52,7.83,7.83-3.52,7.82-7.83,7.82-7.82-3.52-7.82-7.82"/>
        <path class="cls-6" d="M216.06,169.29c0-4.31,3.52-7.83,7.82-7.83s7.83,3.52,7.83,7.83-3.52,7.82-7.83,7.82-7.82-3.52-7.82-7.82"/>
      </g>
      <g>
        <path class="cls-8" d="M199.55,169.42c0-4.3,3.52-7.82,7.82-7.82s7.83,3.52,7.83,7.82-3.52,7.82-7.83,7.82-7.82-3.52-7.82-7.82"/>
        <path class="cls-6" d="M199.55,169.42c0-4.3,3.52-7.82,7.82-7.82s7.83,3.52,7.83,7.82-3.52,7.82-7.83,7.82-7.82-3.52-7.82-7.82"/>
      </g>
      <g>
        <path class="cls-8" d="M188.91,161.15c0-4.31,3.52-7.83,7.83-7.83s7.82,3.52,7.82,7.83-3.52,7.82-7.82,7.82-7.83-3.52-7.83-7.82"/>
        <path class="cls-6" d="M188.91,161.15c0-4.31,3.52-7.83,7.83-7.83s7.82,3.52,7.82,7.83-3.52,7.82-7.82,7.82-7.83-3.52-7.83-7.82"/>
      </g>
      <g>
        <path class="cls-8" d="M208.49,163.24c0-4.3,3.52-7.82,7.82-7.82s7.82,3.52,7.82,7.82-3.52,7.82-7.82,7.82-7.82-3.52-7.82-7.82"/>
        <path class="cls-6" d="M208.49,163.24c0-4.3,3.52-7.82,7.82-7.82s7.82,3.52,7.82,7.82-3.52,7.82-7.82,7.82-7.82-3.52-7.82-7.82"/>
      </g>
      <g>
        <path class="cls-8" d="M220.05,174.7c0-4.31,3.52-7.83,7.83-7.83s7.82,3.52,7.82,7.83-3.52,7.82-7.82,7.82-7.83-3.52-7.83-7.82"/>
        <path class="cls-6" d="M220.05,174.7c0-4.31,3.52-7.83,7.83-7.83s7.82,3.52,7.82,7.83-3.52,7.82-7.82,7.82-7.83-3.52-7.83-7.82"/>
      </g>
      <g>
        <path class="cls-8" d="M220.01,171.26c0-4.3,3.52-7.82,7.82-7.82s7.82,3.52,7.82,7.82-3.52,7.82-7.82,7.82-7.82-3.52-7.82-7.82"/>
        <path class="cls-6" d="M220.01,171.26c0-4.3,3.52-7.82,7.82-7.82s7.82,3.52,7.82,7.82-3.52,7.82-7.82,7.82-7.82-3.52-7.82-7.82"/>
      </g>
      <g>
        <path class="cls-8" d="M216.64,153.6c0-4.3,3.52-7.82,7.83-7.82s7.82,3.52,7.82,7.82-3.52,7.82-7.82,7.82-7.83-3.52-7.83-7.82"/>
        <path class="cls-6" d="M216.64,153.6c0-4.3,3.52-7.82,7.83-7.82s7.82,3.52,7.82,7.82-3.52,7.82-7.82,7.82-7.83-3.52-7.83-7.82"/>
      </g>
      <line class="cls-2" x1="-313.99" y1="738.86" x2="794.31" y2="-369.44"/>
      <polyline class="cls-5" points="132.47 216.18 135.3 214.47 138.14 212.75 140.98 211.04 143.82 209.32 146.65 207.61 149.49 205.89 152.33 204.18 155.16 202.46 158 200.75 160.84 199.03 163.67 197.32 166.51 195.6 169.35 193.88 172.19 192.17 175.02 190.45 177.86 188.74 180.7 187.02 183.53 185.31 186.37 183.59 189.21 181.88 192.04 180.16 194.88 178.45 197.72 176.73 200.56 175.02 203.39 173.3 206.23 171.59 209.07 169.87 211.9 168.15 214.74 166.44 217.58 164.72 220.41 163.01 223.25 161.29 226.09 159.58 228.93 157.86 231.76 156.15 234.6 154.43 237.44 152.72 240.27 151 243.11 149.29 245.95 147.57 248.78 145.86 251.62 144.14 254.46 142.43 257.3 140.71 260.13 138.99 262.97 137.28 265.81 135.56 268.64 133.85 271.48 132.13 274.32 130.42 277.15 128.7 279.99 126.99 282.83 125.27 285.67 123.56 288.5 121.84 291.34 120.13 294.18 118.41 297.01 116.7 299.85 114.98 302.69 113.26 305.52 111.55 308.36 109.83 311.2 108.12 314.04 106.4 316.87 104.69 319.71 102.97 322.55 101.26 325.38 99.54 328.22 97.83 331.06 96.11 333.89 94.4 336.73 92.68 339.57 90.97 342.41 89.25 345.24 87.54 348.08 85.82 350.92 84.1 353.75 82.39 356.59 80.67"/>
      <path d="M89.32,42.89v-12.17h5.4c1.08,0,1.91,.11,2.47,.33,.56,.22,1.02,.6,1.35,1.16s.51,1.17,.51,1.83c0,.86-.28,1.59-.84,2.18s-1.42,.97-2.59,1.13c.43,.2,.75,.41,.97,.61,.47,.43,.92,.97,1.34,1.62l2.12,3.31h-2.03l-1.61-2.53c-.47-.73-.86-1.29-1.16-1.68s-.58-.66-.82-.81c-.24-.15-.49-.26-.73-.32-.18-.04-.48-.06-.9-.06h-1.87v5.4h-1.61Zm1.61-6.8h3.46c.74,0,1.31-.08,1.73-.23,.42-.15,.73-.4,.95-.73,.22-.33,.32-.7,.32-1.09,0-.58-.21-1.05-.63-1.42-.42-.37-1.08-.56-1.98-.56h-3.85v4.03Z"/>
      <path d="M101.52,42.89v-12.17h2.42l2.88,8.62c.27,.8,.46,1.4,.58,1.8,.14-.44,.35-1.09,.65-1.95l2.91-8.47h2.17v12.17h-1.55v-10.19l-3.54,10.19h-1.45l-3.52-10.36v10.36h-1.55Z"/>
      <path d="M115.18,38.98l1.52-.13c.07,.61,.24,1.11,.5,1.5,.26,.39,.67,.71,1.22,.95,.55,.24,1.18,.36,1.87,.36,.61,0,1.16-.09,1.63-.27s.82-.43,1.05-.75c.23-.32,.34-.67,.34-1.04s-.11-.72-.33-1c-.22-.29-.59-.52-1.1-.72-.33-.13-1.05-.33-2.17-.59-1.12-.27-1.9-.52-2.35-.76-.58-.3-1.01-.68-1.3-1.13-.29-.45-.43-.96-.43-1.52,0-.61,.17-1.19,.52-1.72,.35-.53,.86-.94,1.53-1.22s1.41-.42,2.23-.42c.9,0,1.7,.15,2.39,.44,.69,.29,1.22,.72,1.59,1.28s.57,1.2,.6,1.92l-1.54,.12c-.08-.77-.36-1.35-.84-1.74-.48-.39-1.19-.59-2.12-.59s-1.68,.18-2.13,.54c-.45,.36-.67,.79-.67,1.29,0,.44,.16,.8,.47,1.08,.31,.28,1.12,.57,2.43,.87,1.31,.3,2.21,.56,2.69,.78,.71,.33,1.23,.74,1.57,1.24,.34,.5,.51,1.08,.51,1.73s-.19,1.26-.56,1.83c-.37,.57-.9,1.02-1.6,1.34-.69,.32-1.48,.48-2.35,.48-1.1,0-2.02-.16-2.77-.48-.74-.32-1.33-.8-1.75-1.45-.42-.64-.65-1.37-.67-2.19Z"/>
      <path d="M127.1,42.89v-12.17h8.8v1.44h-7.19v3.73h6.73v1.43h-6.73v4.14h7.47v1.44h-9.08Z"/>
      <path d="M141.56,35.39v-.6h7.37v.6h-7.37Zm0,3.39v-.6h7.37v.6h-7.37Z"/>
      <g>
        <path d="M155,36.89c0-1.44,.15-2.6,.44-3.47,.3-.88,.74-1.55,1.32-2.03,.58-.48,1.32-.71,2.2-.71,.65,0,1.23,.13,1.72,.39,.49,.26,.9,.64,1.22,1.14,.32,.5,.57,1.1,.76,1.81,.18,.71,.27,1.67,.27,2.88,0,1.43-.15,2.58-.44,3.46-.29,.88-.73,1.55-1.32,2.03-.58,.48-1.32,.72-2.21,.72-1.17,0-2.09-.42-2.76-1.26-.8-1.01-1.2-2.66-1.2-4.95Zm1.54,0c0,2,.23,3.33,.7,3.99,.47,.66,1.04,.99,1.73,.99s1.26-.33,1.73-1c.47-.66,.7-1.99,.7-3.98s-.23-3.33-.7-3.99c-.47-.66-1.05-.99-1.75-.99s-1.23,.29-1.64,.87c-.51,.74-.77,2.11-.77,4.11Z"/>
        <path d="M165.3,42.89v-1.7h1.7v1.7h-1.7Z"/>
        <path d="M174.81,42.89h-1.49v-9.52c-.36,.34-.83,.69-1.42,1.03-.58,.34-1.11,.6-1.57,.77v-1.44c.84-.39,1.57-.87,2.19-1.43s1.07-1.1,1.33-1.63h.96v12.22Z"/>
        <path d="M178.64,39.68l1.49-.2c.17,.85,.46,1.46,.88,1.83,.41,.37,.91,.56,1.51,.56,.7,0,1.3-.24,1.78-.73,.48-.49,.73-1.09,.73-1.81s-.22-1.25-.67-1.7c-.45-.45-1.02-.67-1.71-.67-.28,0-.63,.06-1.05,.17l.17-1.31c.1,.01,.18,.02,.24,.02,.64,0,1.21-.17,1.72-.5s.76-.84,.76-1.54c0-.55-.19-1-.56-1.36s-.85-.54-1.44-.54-1.07,.18-1.45,.55-.64,.91-.75,1.64l-1.49-.27c.18-1,.6-1.78,1.25-2.33,.65-.55,1.45-.83,2.42-.83,.66,0,1.28,.14,1.83,.43,.56,.28,.99,.67,1.28,1.17,.3,.49,.44,1.02,.44,1.57s-.14,1-.42,1.44-.7,.77-1.25,1.03c.72,.17,1.28,.51,1.68,1.03,.4,.52,.6,1.18,.6,1.96,0,1.06-.39,1.96-1.16,2.7-.77,.74-1.75,1.11-2.94,1.11-1.07,0-1.96-.32-2.66-.95-.71-.64-1.11-1.46-1.21-2.47Z"/>
        <path d="M190.39,36.29c-.62-.23-1.08-.55-1.38-.97s-.45-.92-.45-1.51c0-.89,.32-1.63,.95-2.23s1.48-.9,2.54-.9,1.92,.31,2.56,.93c.65,.62,.97,1.37,.97,2.25,0,.56-.15,1.06-.44,1.47-.3,.42-.75,.74-1.35,.97,.75,.24,1.32,.64,1.71,1.18,.39,.54,.59,1.19,.59,1.94,0,1.04-.37,1.91-1.1,2.62s-1.7,1.06-2.91,1.06-2.17-.36-2.91-1.07c-.74-.71-1.1-1.6-1.1-2.66,0-.79,.2-1.45,.6-1.99,.4-.53,.97-.9,1.71-1.09Zm-.78,3.09c0,.43,.1,.84,.3,1.24,.2,.4,.5,.71,.9,.93,.4,.22,.83,.33,1.29,.33,.71,0,1.3-.23,1.77-.69s.7-1.04,.7-1.75-.24-1.31-.72-1.78c-.48-.47-1.08-.71-1.8-.71s-1.29,.23-1.75,.7c-.46,.46-.69,1.05-.69,1.74Zm.48-5.62c0,.58,.19,1.05,.56,1.41s.85,.55,1.44,.55,1.05-.18,1.42-.54c.37-.36,.55-.81,.55-1.33s-.19-1.01-.57-1.38c-.38-.37-.85-.56-1.42-.56s-1.04,.18-1.42,.55-.56,.8-.56,1.31Z"/>
      </g>
      <path d="M89.32,42.89v-12.17h5.4c1.08,0,1.91,.11,2.47,.33,.56,.22,1.02,.6,1.35,1.16s.51,1.17,.51,1.83c0,.86-.28,1.59-.84,2.18s-1.42,.97-2.59,1.13c.43,.2,.75,.41,.97,.61,.47,.43,.92,.97,1.34,1.62l2.12,3.31h-2.03l-1.61-2.53c-.47-.73-.86-1.29-1.16-1.68s-.58-.66-.82-.81c-.24-.15-.49-.26-.73-.32-.18-.04-.48-.06-.9-.06h-1.87v5.4h-1.61Zm1.61-6.8h3.46c.74,0,1.31-.08,1.73-.23,.42-.15,.73-.4,.95-.73,.22-.33,.32-.7,.32-1.09,0-.58-.21-1.05-.63-1.42-.42-.37-1.08-.56-1.98-.56h-3.85v4.03Z"/>
      <path d="M101.52,42.89v-12.17h2.42l2.88,8.62c.27,.8,.46,1.4,.58,1.8,.14-.44,.35-1.09,.65-1.95l2.91-8.47h2.17v12.17h-1.55v-10.19l-3.54,10.19h-1.45l-3.52-10.36v10.36h-1.55Z"/>
      <path d="M115.18,38.98l1.52-.13c.07,.61,.24,1.11,.5,1.5,.26,.39,.67,.71,1.22,.95,.55,.24,1.18,.36,1.87,.36,.61,0,1.16-.09,1.63-.27s.82-.43,1.05-.75c.23-.32,.34-.67,.34-1.04s-.11-.72-.33-1c-.22-.29-.59-.52-1.1-.72-.33-.13-1.05-.33-2.17-.59-1.12-.27-1.9-.52-2.35-.76-.58-.3-1.01-.68-1.3-1.13-.29-.45-.43-.96-.43-1.52,0-.61,.17-1.19,.52-1.72,.35-.53,.86-.94,1.53-1.22s1.41-.42,2.23-.42c.9,0,1.7,.15,2.39,.44,.69,.29,1.22,.72,1.59,1.28s.57,1.2,.6,1.92l-1.54,.12c-.08-.77-.36-1.35-.84-1.74-.48-.39-1.19-.59-2.12-.59s-1.68,.18-2.13,.54c-.45,.36-.67,.79-.67,1.29,0,.44,.16,.8,.47,1.08,.31,.28,1.12,.57,2.43,.87,1.31,.3,2.21,.56,2.69,.78,.71,.33,1.23,.74,1.57,1.24,.34,.5,.51,1.08,.51,1.73s-.19,1.26-.56,1.83c-.37,.57-.9,1.02-1.6,1.34-.69,.32-1.48,.48-2.35,.48-1.1,0-2.02-.16-2.77-.48-.74-.32-1.33-.8-1.75-1.45-.42-.64-.65-1.37-.67-2.19Z"/>
      <path d="M127.1,42.89v-12.17h8.8v1.44h-7.19v3.73h6.73v1.43h-6.73v4.14h7.47v1.44h-9.08Z"/>
      <path d="M141.56,35.39v-.6h7.37v.6h-7.37Zm0,3.39v-.6h7.37v.6h-7.37Z"/>
      <g>
        <path d="M155,36.89c0-1.44,.15-2.6,.44-3.47,.3-.88,.74-1.55,1.32-2.03,.58-.48,1.32-.71,2.2-.71,.65,0,1.23,.13,1.72,.39,.49,.26,.9,.64,1.22,1.14,.32,.5,.57,1.1,.76,1.81,.18,.71,.27,1.67,.27,2.88,0,1.43-.15,2.58-.44,3.46-.29,.88-.73,1.55-1.32,2.03-.58,.48-1.32,.72-2.21,.72-1.17,0-2.09-.42-2.76-1.26-.8-1.01-1.2-2.66-1.2-4.95Zm1.54,0c0,2,.23,3.33,.7,3.99,.47,.66,1.04,.99,1.73,.99s1.26-.33,1.73-1c.47-.66,.7-1.99,.7-3.98s-.23-3.33-.7-3.99c-.47-.66-1.05-.99-1.75-.99s-1.23,.29-1.64,.87c-.51,.74-.77,2.11-.77,4.11Z"/>
        <path d="M165.3,42.89v-1.7h1.7v1.7h-1.7Z"/>
        <path d="M174.81,42.89h-1.49v-9.52c-.36,.34-.83,.69-1.42,1.03-.58,.34-1.11,.6-1.57,.77v-1.44c.84-.39,1.57-.87,2.19-1.43s1.07-1.1,1.33-1.63h.96v12.22Z"/>
        <path d="M178.64,39.68l1.49-.2c.17,.85,.46,1.46,.88,1.83,.41,.37,.91,.56,1.51,.56,.7,0,1.3-.24,1.78-.73,.48-.49,.73-1.09,.73-1.81s-.22-1.25-.67-1.7c-.45-.45-1.02-.67-1.71-.67-.28,0-.63,.06-1.05,.17l.17-1.31c.1,.01,.18,.02,.24,.02,.64,0,1.21-.17,1.72-.5s.76-.84,.76-1.54c0-.55-.19-1-.56-1.36s-.85-.54-1.44-.54-1.07,.18-1.45,.55-.64,.91-.75,1.64l-1.49-.27c.18-1,.6-1.78,1.25-2.33,.65-.55,1.45-.83,2.42-.83,.66,0,1.28,.14,1.83,.43,.56,.28,.99,.67,1.28,1.17,.3,.49,.44,1.02,.44,1.57s-.14,1-.42,1.44-.7,.77-1.25,1.03c.72,.17,1.28,.51,1.68,1.03,.4,.52,.6,1.18,.6,1.96,0,1.06-.39,1.96-1.16,2.7-.77,.74-1.75,1.11-2.94,1.11-1.07,0-1.96-.32-2.66-.95-.71-.64-1.11-1.46-1.21-2.47Z"/>
        <path d="M190.39,36.29c-.62-.23-1.08-.55-1.38-.97s-.45-.92-.45-1.51c0-.89,.32-1.63,.95-2.23s1.48-.9,2.54-.9,1.92,.31,2.56,.93c.65,.62,.97,1.37,.97,2.25,0,.56-.15,1.06-.44,1.47-.3,.42-.75,.74-1.35,.97,.75,.24,1.32,.64,1.71,1.18,.39,.54,.59,1.19,.59,1.94,0,1.04-.37,1.91-1.1,2.62s-1.7,1.06-2.91,1.06-2.17-.36-2.91-1.07c-.74-.71-1.1-1.6-1.1-2.66,0-.79,.2-1.45,.6-1.99,.4-.53,.97-.9,1.71-1.09Zm-.78,3.09c0,.43,.1,.84,.3,1.24,.2,.4,.5,.71,.9,.93,.4,.22,.83,.33,1.29,.33,.71,0,1.3-.23,1.77-.69s.7-1.04,.7-1.75-.24-1.31-.72-1.78c-.48-.47-1.08-.71-1.8-.71s-1.29,.23-1.75,.7c-.46,.46-.69,1.05-.69,1.74Zm.48-5.62c0,.58,.19,1.05,.56,1.41s.85,.55,1.44,.55,1.05-.18,1.42-.54c.37-.36,.55-.81,.55-1.33s-.19-1.01-.57-1.38c-.38-.37-.85-.56-1.42-.56s-1.04,.18-1.42,.55-.56,.8-.56,1.31Z"/>
      </g>
      <path d="M89.32,42.89v-12.17h5.4c1.08,0,1.91,.11,2.47,.33,.56,.22,1.02,.6,1.35,1.16s.51,1.17,.51,1.83c0,.86-.28,1.59-.84,2.18s-1.42,.97-2.59,1.13c.43,.2,.75,.41,.97,.61,.47,.43,.92,.97,1.34,1.62l2.12,3.31h-2.03l-1.61-2.53c-.47-.73-.86-1.29-1.16-1.68s-.58-.66-.82-.81c-.24-.15-.49-.26-.73-.32-.18-.04-.48-.06-.9-.06h-1.87v5.4h-1.61Zm1.61-6.8h3.46c.74,0,1.31-.08,1.73-.23,.42-.15,.73-.4,.95-.73,.22-.33,.32-.7,.32-1.09,0-.58-.21-1.05-.63-1.42-.42-.37-1.08-.56-1.98-.56h-3.85v4.03Z"/>
      <path d="M101.52,42.89v-12.17h2.42l2.88,8.62c.27,.8,.46,1.4,.58,1.8,.14-.44,.35-1.09,.65-1.95l2.91-8.47h2.17v12.17h-1.55v-10.19l-3.54,10.19h-1.45l-3.52-10.36v10.36h-1.55Z"/>
      <path d="M115.18,38.98l1.52-.13c.07,.61,.24,1.11,.5,1.5,.26,.39,.67,.71,1.22,.95,.55,.24,1.18,.36,1.87,.36,.61,0,1.16-.09,1.63-.27s.82-.43,1.05-.75c.23-.32,.34-.67,.34-1.04s-.11-.72-.33-1c-.22-.29-.59-.52-1.1-.72-.33-.13-1.05-.33-2.17-.59-1.12-.27-1.9-.52-2.35-.76-.58-.3-1.01-.68-1.3-1.13-.29-.45-.43-.96-.43-1.52,0-.61,.17-1.19,.52-1.72,.35-.53,.86-.94,1.53-1.22s1.41-.42,2.23-.42c.9,0,1.7,.15,2.39,.44,.69,.29,1.22,.72,1.59,1.28s.57,1.2,.6,1.92l-1.54,.12c-.08-.77-.36-1.35-.84-1.74-.48-.39-1.19-.59-2.12-.59s-1.68,.18-2.13,.54c-.45,.36-.67,.79-.67,1.29,0,.44,.16,.8,.47,1.08,.31,.28,1.12,.57,2.43,.87,1.31,.3,2.21,.56,2.69,.78,.71,.33,1.23,.74,1.57,1.24,.34,.5,.51,1.08,.51,1.73s-.19,1.26-.56,1.83c-.37,.57-.9,1.02-1.6,1.34-.69,.32-1.48,.48-2.35,.48-1.1,0-2.02-.16-2.77-.48-.74-.32-1.33-.8-1.75-1.45-.42-.64-.65-1.37-.67-2.19Z"/>
      <path d="M127.1,42.89v-12.17h8.8v1.44h-7.19v3.73h6.73v1.43h-6.73v4.14h7.47v1.44h-9.08Z"/>
      <path d="M141.56,35.39v-.6h7.37v.6h-7.37Zm0,3.39v-.6h7.37v.6h-7.37Z"/>
      <g>
        <path d="M155,36.89c0-1.44,.15-2.6,.44-3.47,.3-.88,.74-1.55,1.32-2.03,.58-.48,1.32-.71,2.2-.71,.65,0,1.23,.13,1.72,.39,.49,.26,.9,.64,1.22,1.14,.32,.5,.57,1.1,.76,1.81,.18,.71,.27,1.67,.27,2.88,0,1.43-.15,2.58-.44,3.46-.29,.88-.73,1.55-1.32,2.03-.58,.48-1.32,.72-2.21,.72-1.17,0-2.09-.42-2.76-1.26-.8-1.01-1.2-2.66-1.2-4.95Zm1.54,0c0,2,.23,3.33,.7,3.99,.47,.66,1.04,.99,1.73,.99s1.26-.33,1.73-1c.47-.66,.7-1.99,.7-3.98s-.23-3.33-.7-3.99c-.47-.66-1.05-.99-1.75-.99s-1.23,.29-1.64,.87c-.51,.74-.77,2.11-.77,4.11Z"/>
        <path d="M165.3,42.89v-1.7h1.7v1.7h-1.7Z"/>
        <path d="M174.81,42.89h-1.49v-9.52c-.36,.34-.83,.69-1.42,1.03-.58,.34-1.11,.6-1.57,.77v-1.44c.84-.39,1.57-.87,2.19-1.43s1.07-1.1,1.33-1.63h.96v12.22Z"/>
        <path d="M178.64,39.68l1.49-.2c.17,.85,.46,1.46,.88,1.83,.41,.37,.91,.56,1.51,.56,.7,0,1.3-.24,1.78-.73,.48-.49,.73-1.09,.73-1.81s-.22-1.25-.67-1.7c-.45-.45-1.02-.67-1.71-.67-.28,0-.63,.06-1.05,.17l.17-1.31c.1,.01,.18,.02,.24,.02,.64,0,1.21-.17,1.72-.5s.76-.84,.76-1.54c0-.55-.19-1-.56-1.36s-.85-.54-1.44-.54-1.07,.18-1.45,.55-.64,.91-.75,1.64l-1.49-.27c.18-1,.6-1.78,1.25-2.33,.65-.55,1.45-.83,2.42-.83,.66,0,1.28,.14,1.83,.43,.56,.28,.99,.67,1.28,1.17,.3,.49,.44,1.02,.44,1.57s-.14,1-.42,1.44-.7,.77-1.25,1.03c.72,.17,1.28,.51,1.68,1.03,.4,.52,.6,1.18,.6,1.96,0,1.06-.39,1.96-1.16,2.7-.77,.74-1.75,1.11-2.94,1.11-1.07,0-1.96-.32-2.66-.95-.71-.64-1.11-1.46-1.21-2.47Z"/>
        <path d="M190.39,36.29c-.62-.23-1.08-.55-1.38-.97s-.45-.92-.45-1.51c0-.89,.32-1.63,.95-2.23s1.48-.9,2.54-.9,1.92,.31,2.56,.93c.65,.62,.97,1.37,.97,2.25,0,.56-.15,1.06-.44,1.47-.3,.42-.75,.74-1.35,.97,.75,.24,1.32,.64,1.71,1.18,.39,.54,.59,1.19,.59,1.94,0,1.04-.37,1.91-1.1,2.62s-1.7,1.06-2.91,1.06-2.17-.36-2.91-1.07c-.74-.71-1.1-1.6-1.1-2.66,0-.79,.2-1.45,.6-1.99,.4-.53,.97-.9,1.71-1.09Zm-.78,3.09c0,.43,.1,.84,.3,1.24,.2,.4,.5,.71,.9,.93,.4,.22,.83,.33,1.29,.33,.71,0,1.3-.23,1.77-.69s.7-1.04,.7-1.75-.24-1.31-.72-1.78c-.48-.47-1.08-.71-1.8-.71s-1.29,.23-1.75,.7c-.46,.46-.69,1.05-.69,1.74Zm.48-5.62c0,.58,.19,1.05,.56,1.41s.85,.55,1.44,.55,1.05-.18,1.42-.54c.37-.36,.55-.81,.55-1.33s-.19-1.01-.57-1.38c-.38-.37-.85-.56-1.42-.56s-1.04,.18-1.42,.55-.56,.8-.56,1.31Z"/>
      </g>
      <path d="M100.11,67.31v-12.17h2.42l2.88,8.62c.27,.8,.46,1.4,.58,1.8,.14-.44,.35-1.09,.65-1.95l2.91-8.47h2.17v12.17h-1.55v-10.19l-3.54,10.19h-1.45l-3.52-10.36v10.36h-1.55Z"/>
      <path d="M112.98,67.31l4.67-12.17h1.73l4.98,12.17h-1.83l-1.42-3.69h-5.09l-1.34,3.69h-1.71Zm3.51-5h4.13l-1.27-3.37c-.39-1.02-.68-1.86-.86-2.52-.15,.78-.37,1.56-.66,2.32l-1.34,3.57Z"/>
      <path d="M125.69,67.31v-12.17h8.8v1.44h-7.19v3.73h6.73v1.43h-6.73v4.14h7.47v1.44h-9.08Z"/>
      <path d="M140.15,59.81v-.6h7.37v.6h-7.37Zm0,3.39v-.6h7.37v.6h-7.37Z"/>
      <g>
        <path d="M153.59,61.31c0-1.44,.15-2.6,.44-3.47,.3-.88,.74-1.55,1.32-2.03,.58-.48,1.32-.71,2.2-.71,.65,0,1.23,.13,1.72,.39,.49,.26,.9,.64,1.22,1.14,.32,.5,.57,1.1,.76,1.81,.18,.71,.27,1.67,.27,2.88,0,1.43-.15,2.58-.44,3.46-.29,.88-.73,1.55-1.32,2.03-.58,.48-1.32,.72-2.21,.72-1.17,0-2.09-.42-2.76-1.26-.8-1.01-1.2-2.66-1.2-4.95Zm1.54,0c0,2,.23,3.33,.7,3.99,.47,.66,1.04,.99,1.73,.99s1.26-.33,1.73-1c.47-.66,.7-1.99,.7-3.98s-.23-3.33-.7-3.99c-.47-.66-1.05-.99-1.75-.99s-1.23,.29-1.64,.87c-.51,.74-.77,2.11-.77,4.11Z"/>
        <path d="M163.89,67.31v-1.7h1.7v1.7h-1.7Z"/>
        <path d="M173.4,67.31h-1.49v-9.52c-.36,.34-.83,.69-1.42,1.03-.58,.34-1.11,.6-1.57,.77v-1.44c.84-.39,1.57-.87,2.19-1.43s1.07-1.1,1.33-1.63h.96v12.22Z"/>
        <path d="M182.85,67.31h-1.49v-9.52c-.36,.34-.83,.69-1.42,1.03-.58,.34-1.11,.6-1.57,.77v-1.44c.84-.39,1.57-.87,2.19-1.43s1.07-1.1,1.33-1.63h.96v12.22Z"/>
      </g>
      <path d="M100.11,67.31v-12.17h2.42l2.88,8.62c.27,.8,.46,1.4,.58,1.8,.14-.44,.35-1.09,.65-1.95l2.91-8.47h2.17v12.17h-1.55v-10.19l-3.54,10.19h-1.45l-3.52-10.36v10.36h-1.55Z"/>
      <path d="M112.98,67.31l4.67-12.17h1.73l4.98,12.17h-1.83l-1.42-3.69h-5.09l-1.34,3.69h-1.71Zm3.51-5h4.13l-1.27-3.37c-.39-1.02-.68-1.86-.86-2.52-.15,.78-.37,1.56-.66,2.32l-1.34,3.57Z"/>
      <path d="M125.69,67.31v-12.17h8.8v1.44h-7.19v3.73h6.73v1.43h-6.73v4.14h7.47v1.44h-9.08Z"/>
      <path d="M140.15,59.81v-.6h7.37v.6h-7.37Zm0,3.39v-.6h7.37v.6h-7.37Z"/>
      <g>
        <path d="M153.59,61.31c0-1.44,.15-2.6,.44-3.47,.3-.88,.74-1.55,1.32-2.03,.58-.48,1.32-.71,2.2-.71,.65,0,1.23,.13,1.72,.39,.49,.26,.9,.64,1.22,1.14,.32,.5,.57,1.1,.76,1.81,.18,.71,.27,1.67,.27,2.88,0,1.43-.15,2.58-.44,3.46-.29,.88-.73,1.55-1.32,2.03-.58,.48-1.32,.72-2.21,.72-1.17,0-2.09-.42-2.76-1.26-.8-1.01-1.2-2.66-1.2-4.95Zm1.54,0c0,2,.23,3.33,.7,3.99,.47,.66,1.04,.99,1.73,.99s1.26-.33,1.73-1c.47-.66,.7-1.99,.7-3.98s-.23-3.33-.7-3.99c-.47-.66-1.05-.99-1.75-.99s-1.23,.29-1.64,.87c-.51,.74-.77,2.11-.77,4.11Z"/>
        <path d="M163.89,67.31v-1.7h1.7v1.7h-1.7Z"/>
        <path d="M173.4,67.31h-1.49v-9.52c-.36,.34-.83,.69-1.42,1.03-.58,.34-1.11,.6-1.57,.77v-1.44c.84-.39,1.57-.87,2.19-1.43s1.07-1.1,1.33-1.63h.96v12.22Z"/>
        <path d="M182.85,67.31h-1.49v-9.52c-.36,.34-.83,.69-1.42,1.03-.58,.34-1.11,.6-1.57,.77v-1.44c.84-.39,1.57-.87,2.19-1.43s1.07-1.1,1.33-1.63h.96v12.22Z"/>
      </g>
      <path d="M100.11,67.31v-12.17h2.42l2.88,8.62c.27,.8,.46,1.4,.58,1.8,.14-.44,.35-1.09,.65-1.95l2.91-8.47h2.17v12.17h-1.55v-10.19l-3.54,10.19h-1.45l-3.52-10.36v10.36h-1.55Z"/>
      <path d="M112.98,67.31l4.67-12.17h1.73l4.98,12.17h-1.83l-1.42-3.69h-5.09l-1.34,3.69h-1.71Zm3.51-5h4.13l-1.27-3.37c-.39-1.02-.68-1.86-.86-2.52-.15,.78-.37,1.56-.66,2.32l-1.34,3.57Z"/>
      <path d="M125.69,67.31v-12.17h8.8v1.44h-7.19v3.73h6.73v1.43h-6.73v4.14h7.47v1.44h-9.08Z"/>
      <path d="M140.15,59.81v-.6h7.37v.6h-7.37Zm0,3.39v-.6h7.37v.6h-7.37Z"/>
      <g>
        <path d="M153.59,61.31c0-1.44,.15-2.6,.44-3.47,.3-.88,.74-1.55,1.32-2.03,.58-.48,1.32-.71,2.2-.71,.65,0,1.23,.13,1.72,.39,.49,.26,.9,.64,1.22,1.14,.32,.5,.57,1.1,.76,1.81,.18,.71,.27,1.67,.27,2.88,0,1.43-.15,2.58-.44,3.46-.29,.88-.73,1.55-1.32,2.03-.58,.48-1.32,.72-2.21,.72-1.17,0-2.09-.42-2.76-1.26-.8-1.01-1.2-2.66-1.2-4.95Zm1.54,0c0,2,.23,3.33,.7,3.99,.47,.66,1.04,.99,1.73,.99s1.26-.33,1.73-1c.47-.66,.7-1.99,.7-3.98s-.23-3.33-.7-3.99c-.47-.66-1.05-.99-1.75-.99s-1.23,.29-1.64,.87c-.51,.74-.77,2.11-.77,4.11Z"/>
        <path d="M163.89,67.31v-1.7h1.7v1.7h-1.7Z"/>
        <path d="M173.4,67.31h-1.49v-9.52c-.36,.34-.83,.69-1.42,1.03-.58,.34-1.11,.6-1.57,.77v-1.44c.84-.39,1.57-.87,2.19-1.43s1.07-1.1,1.33-1.63h.96v12.22Z"/>
        <path d="M182.85,67.31h-1.49v-9.52c-.36,.34-.83,.69-1.42,1.03-.58,.34-1.11,.6-1.57,.77v-1.44c.84-.39,1.57-.87,2.19-1.43s1.07-1.1,1.33-1.63h.96v12.22Z"/>
      </g>
      <path d="M76.95,90.9v-12.17h2.42l2.88,8.62c.27,.8,.46,1.4,.58,1.8,.14-.44,.35-1.09,.65-1.95l2.91-8.47h2.17v12.17h-1.55v-10.19l-3.54,10.19h-1.45l-3.52-10.36v10.36h-1.55Z"/>
      <path d="M97.01,88.06l1.54,.19c-.24,.9-.69,1.6-1.35,2.1s-1.5,.75-2.52,.75c-1.29,0-2.31-.4-3.07-1.19-.76-.79-1.13-1.91-1.13-3.34s.38-2.63,1.15-3.45,1.75-1.23,2.97-1.23,2.14,.4,2.89,1.2,1.12,1.93,1.12,3.39c0,.09,0,.22,0,.4h-6.57c.06,.97,.33,1.71,.82,2.22s1.11,.77,1.84,.77c.55,0,1.02-.14,1.4-.43s.69-.75,.92-1.38Zm-4.91-2.42h4.92c-.07-.74-.25-1.3-.56-1.67-.48-.58-1.09-.86-1.85-.86-.69,0-1.26,.23-1.73,.69-.47,.46-.73,1.07-.78,1.84Z"/>
      <path d="M106.18,89.81c-.55,.47-1.09,.8-1.6,1-.51,.19-1.06,.29-1.65,.29-.97,0-1.71-.24-2.23-.71-.52-.47-.78-1.08-.78-1.81,0-.43,.1-.83,.29-1.18,.2-.36,.45-.64,.77-.86,.32-.22,.68-.38,1.08-.49,.29-.08,.74-.15,1.33-.22,1.21-.14,2.09-.32,2.66-.51,0-.2,0-.33,0-.39,0-.61-.14-1.04-.42-1.29-.38-.34-.95-.51-1.7-.51-.7,0-1.22,.12-1.56,.37-.33,.25-.58,.68-.74,1.31l-1.46-.2c.13-.63,.35-1.13,.66-1.52,.3-.38,.74-.68,1.32-.89,.58-.21,1.24-.31,2-.31s1.36,.09,1.83,.27,.82,.4,1.04,.67c.22,.27,.38,.61,.46,1.02,.05,.25,.07,.71,.07,1.38v1.99c0,1.39,.03,2.27,.1,2.64,.06,.37,.19,.72,.38,1.06h-1.56c-.15-.31-.25-.67-.3-1.09Zm-.12-3.34c-.54,.22-1.36,.41-2.44,.56-.61,.09-1.05,.19-1.3,.3s-.45,.27-.59,.49c-.14,.21-.21,.45-.21,.71,0,.4,.15,.73,.45,1,.3,.27,.74,.4,1.32,.4s1.09-.13,1.54-.38c.45-.25,.78-.6,.99-1.03,.16-.34,.24-.84,.24-1.49v-.55Z"/>
      <path d="M109.88,90.9v-8.82h1.34v1.25c.65-.97,1.58-1.45,2.81-1.45,.53,0,1.02,.1,1.47,.29,.45,.19,.78,.44,1,.75s.38,.68,.46,1.1c.06,.28,.08,.76,.08,1.45v5.42h-1.49v-5.36c0-.61-.06-1.06-.17-1.37-.12-.3-.32-.54-.62-.72-.3-.18-.64-.27-1.04-.27-.64,0-1.19,.2-1.65,.61-.46,.4-.69,1.17-.69,2.3v4.81h-1.49Z"/>
      <path d="M126.71,90.9h-1.39v-12.17h1.49v4.34c.63-.79,1.44-1.19,2.42-1.19,.54,0,1.06,.11,1.54,.33,.48,.22,.88,.53,1.2,.92,.31,.4,.56,.87,.73,1.43s.27,1.16,.27,1.79c0,1.51-.37,2.68-1.12,3.5s-1.64,1.24-2.69,1.24-1.86-.43-2.45-1.3v1.1Zm-.02-4.47c0,1.06,.14,1.82,.43,2.29,.47,.77,1.11,1.15,1.91,1.15,.65,0,1.22-.28,1.69-.85,.48-.57,.71-1.41,.71-2.54s-.23-2-.69-2.55c-.46-.55-1.01-.82-1.66-.82s-1.22,.28-1.69,.85c-.48,.57-.71,1.39-.71,2.46Z"/>
      <path d="M134.79,80.45v-1.72h1.49v1.72h-1.49Zm0,10.45v-8.82h1.49v8.82h-1.49Z"/>
      <path d="M144.31,89.81c-.55,.47-1.09,.8-1.6,1-.51,.19-1.06,.29-1.65,.29-.97,0-1.71-.24-2.23-.71-.52-.47-.78-1.08-.78-1.81,0-.43,.1-.83,.29-1.18,.2-.36,.45-.64,.77-.86,.32-.22,.68-.38,1.08-.49,.29-.08,.74-.15,1.33-.22,1.21-.14,2.09-.32,2.66-.51,0-.2,0-.33,0-.39,0-.61-.14-1.04-.42-1.29-.38-.34-.95-.51-1.7-.51-.7,0-1.22,.12-1.56,.37-.33,.25-.58,.68-.74,1.31l-1.46-.2c.13-.63,.35-1.13,.66-1.52,.3-.38,.74-.68,1.32-.89,.58-.21,1.24-.31,2-.31s1.36,.09,1.83,.27,.82,.4,1.04,.67c.22,.27,.38,.61,.46,1.02,.05,.25,.07,.71,.07,1.38v1.99c0,1.39,.03,2.27,.1,2.64,.06,.37,.19,.72,.38,1.06h-1.56c-.15-.31-.25-.67-.3-1.09Zm-.12-3.34c-.54,.22-1.36,.41-2.44,.56-.61,.09-1.05,.19-1.3,.3s-.45,.27-.59,.49c-.14,.21-.21,.45-.21,.71,0,.4,.15,.73,.45,1,.3,.27,.74,.4,1.32,.4s1.09-.13,1.54-.38c.45-.25,.78-.6,.99-1.03,.16-.34,.24-.84,.24-1.49v-.55Z"/>
      <path d="M147.41,88.27l1.48-.23c.08,.59,.31,1.05,.69,1.36,.38,.32,.91,.47,1.59,.47s1.2-.14,1.53-.42c.33-.28,.5-.61,.5-.98,0-.34-.15-.6-.44-.8-.2-.13-.71-.3-1.53-.51-1.1-.28-1.85-.52-2.28-.72-.42-.2-.74-.48-.96-.84-.22-.36-.33-.75-.33-1.18,0-.39,.09-.76,.27-1.09,.18-.33,.42-.61,.73-.83,.23-.17,.55-.32,.95-.44,.4-.12,.83-.18,1.29-.18,.69,0,1.3,.1,1.82,.3,.52,.2,.91,.47,1.16,.81,.25,.34,.42,.8,.51,1.37l-1.46,.2c-.07-.45-.26-.81-.58-1.06-.32-.25-.77-.38-1.35-.38-.69,0-1.18,.11-1.47,.34s-.44,.49-.44,.8c0,.19,.06,.37,.18,.52,.12,.16,.31,.29,.57,.4,.15,.06,.59,.18,1.32,.38,1.06,.28,1.79,.51,2.21,.69,.42,.18,.75,.44,.98,.78s.36,.77,.36,1.28-.15,.97-.44,1.41c-.29,.44-.71,.78-1.26,1.02-.55,.24-1.17,.36-1.86,.36-1.15,0-2.02-.24-2.62-.71-.6-.48-.98-1.18-1.15-2.12Z"/>
      <path d="M159.85,83.4v-.6h7.37v.6h-7.37Zm0,3.39v-.6h7.37v.6h-7.37Z"/>
      <g>
        <path d="M173.29,84.9c0-1.44,.15-2.6,.44-3.47,.3-.88,.74-1.55,1.32-2.03,.58-.48,1.32-.71,2.2-.71,.65,0,1.23,.13,1.72,.39,.49,.26,.9,.64,1.22,1.14,.32,.5,.57,1.1,.76,1.81,.18,.71,.27,1.67,.27,2.88,0,1.43-.15,2.58-.44,3.46-.29,.88-.73,1.55-1.32,2.03-.58,.48-1.32,.72-2.21,.72-1.17,0-2.09-.42-2.76-1.26-.8-1.01-1.2-2.66-1.2-4.95Zm1.54,0c0,2,.23,3.33,.7,3.99,.47,.66,1.04,.99,1.73,.99s1.26-.33,1.73-1c.47-.66,.7-1.99,.7-3.98s-.23-3.33-.7-3.99c-.47-.66-1.05-.99-1.75-.99s-1.23,.29-1.64,.87c-.51,.74-.77,2.11-.77,4.11Z"/>
        <path d="M183.59,90.9v-1.7h1.7v1.7h-1.7Z"/>
        <path d="M187.47,84.9c0-1.44,.15-2.6,.44-3.47,.3-.88,.74-1.55,1.32-2.03,.58-.48,1.32-.71,2.2-.71,.65,0,1.23,.13,1.72,.39,.49,.26,.9,.64,1.22,1.14,.32,.5,.57,1.1,.76,1.81,.18,.71,.27,1.67,.27,2.88,0,1.43-.15,2.58-.44,3.46-.29,.88-.73,1.55-1.32,2.03-.58,.48-1.32,.72-2.21,.72-1.17,0-2.09-.42-2.76-1.26-.8-1.01-1.2-2.66-1.2-4.95Zm1.54,0c0,2,.23,3.33,.7,3.99,.47,.66,1.04,.99,1.73,.99s1.26-.33,1.73-1c.47-.66,.7-1.99,.7-3.98s-.23-3.33-.7-3.99c-.47-.66-1.05-.99-1.75-.99s-1.23,.29-1.64,.87c-.51,.74-.77,2.11-.77,4.11Z"/>
        <path d="M197.15,88.09l1.44-.13c.12,.68,.35,1.17,.7,1.47s.78,.46,1.32,.46c.46,0,.86-.1,1.21-.32,.35-.21,.63-.49,.85-.84,.22-.35,.41-.83,.56-1.42s.22-1.21,.22-1.83c0-.07,0-.17,0-.3-.3,.48-.71,.86-1.22,1.16-.52,.3-1.08,.44-1.68,.44-1.01,0-1.86-.37-2.56-1.1s-1.05-1.69-1.05-2.89,.36-2.23,1.09-2.98c.73-.75,1.64-1.13,2.74-1.13,.79,0,1.51,.21,2.17,.64,.66,.43,1.15,1.03,1.49,1.82,.34,.79,.51,1.93,.51,3.42s-.17,2.79-.51,3.71c-.34,.92-.84,1.62-1.51,2.1-.67,.48-1.45,.72-2.34,.72-.95,0-1.73-.26-2.33-.79-.6-.53-.97-1.27-1.09-2.23Zm6.12-5.37c0-.86-.23-1.54-.69-2.04-.46-.5-1.01-.76-1.65-.76s-1.24,.27-1.73,.81-.74,1.25-.74,2.11c0,.77,.23,1.4,.7,1.89,.47,.48,1.04,.73,1.73,.73s1.26-.24,1.71-.73c.45-.48,.67-1.15,.67-2.01Z"/>
        <path d="M206.38,87.71l1.57-.13c.12,.76,.39,1.34,.81,1.72,.42,.38,.93,.58,1.53,.58,.72,0,1.33-.27,1.83-.81s.75-1.26,.75-2.16-.24-1.52-.72-2.02c-.48-.49-1.11-.74-1.88-.74-.48,0-.92,.11-1.3,.33-.39,.22-.69,.5-.91,.85l-1.4-.18,1.18-6.25h6.05v1.43h-4.86l-.66,3.27c.73-.51,1.5-.76,2.3-.76,1.06,0,1.96,.37,2.69,1.1s1.1,1.68,1.1,2.84-.32,2.05-.96,2.86c-.78,.98-1.85,1.48-3.2,1.48-1.11,0-2.01-.31-2.71-.93-.7-.62-1.1-1.44-1.2-2.47Z"/>
      </g>
      <path d="M76.95,90.9v-12.17h2.42l2.88,8.62c.27,.8,.46,1.4,.58,1.8,.14-.44,.35-1.09,.65-1.95l2.91-8.47h2.17v12.17h-1.55v-10.19l-3.54,10.19h-1.45l-3.52-10.36v10.36h-1.55Z"/>
      <path d="M97.01,88.06l1.54,.19c-.24,.9-.69,1.6-1.35,2.1s-1.5,.75-2.52,.75c-1.29,0-2.31-.4-3.07-1.19-.76-.79-1.13-1.91-1.13-3.34s.38-2.63,1.15-3.45,1.75-1.23,2.97-1.23,2.14,.4,2.89,1.2,1.12,1.93,1.12,3.39c0,.09,0,.22,0,.4h-6.57c.06,.97,.33,1.71,.82,2.22s1.11,.77,1.84,.77c.55,0,1.02-.14,1.4-.43s.69-.75,.92-1.38Zm-4.91-2.42h4.92c-.07-.74-.25-1.3-.56-1.67-.48-.58-1.09-.86-1.85-.86-.69,0-1.26,.23-1.73,.69-.47,.46-.73,1.07-.78,1.84Z"/>
      <path d="M106.18,89.81c-.55,.47-1.09,.8-1.6,1-.51,.19-1.06,.29-1.65,.29-.97,0-1.71-.24-2.23-.71-.52-.47-.78-1.08-.78-1.81,0-.43,.1-.83,.29-1.18,.2-.36,.45-.64,.77-.86,.32-.22,.68-.38,1.08-.49,.29-.08,.74-.15,1.33-.22,1.21-.14,2.09-.32,2.66-.51,0-.2,0-.33,0-.39,0-.61-.14-1.04-.42-1.29-.38-.34-.95-.51-1.7-.51-.7,0-1.22,.12-1.56,.37-.33,.25-.58,.68-.74,1.31l-1.46-.2c.13-.63,.35-1.13,.66-1.52,.3-.38,.74-.68,1.32-.89,.58-.21,1.24-.31,2-.31s1.36,.09,1.83,.27,.82,.4,1.04,.67c.22,.27,.38,.61,.46,1.02,.05,.25,.07,.71,.07,1.38v1.99c0,1.39,.03,2.27,.1,2.64,.06,.37,.19,.72,.38,1.06h-1.56c-.15-.31-.25-.67-.3-1.09Zm-.12-3.34c-.54,.22-1.36,.41-2.44,.56-.61,.09-1.05,.19-1.3,.3s-.45,.27-.59,.49c-.14,.21-.21,.45-.21,.71,0,.4,.15,.73,.45,1,.3,.27,.74,.4,1.32,.4s1.09-.13,1.54-.38c.45-.25,.78-.6,.99-1.03,.16-.34,.24-.84,.24-1.49v-.55Z"/>
      <path d="M109.88,90.9v-8.82h1.34v1.25c.65-.97,1.58-1.45,2.81-1.45,.53,0,1.02,.1,1.47,.29,.45,.19,.78,.44,1,.75s.38,.68,.46,1.1c.06,.28,.08,.76,.08,1.45v5.42h-1.49v-5.36c0-.61-.06-1.06-.17-1.37-.12-.3-.32-.54-.62-.72-.3-.18-.64-.27-1.04-.27-.64,0-1.19,.2-1.65,.61-.46,.4-.69,1.17-.69,2.3v4.81h-1.49Z"/>
      <path d="M126.71,90.9h-1.39v-12.17h1.49v4.34c.63-.79,1.44-1.19,2.42-1.19,.54,0,1.06,.11,1.54,.33,.48,.22,.88,.53,1.2,.92,.31,.4,.56,.87,.73,1.43s.27,1.16,.27,1.79c0,1.51-.37,2.68-1.12,3.5s-1.64,1.24-2.69,1.24-1.86-.43-2.45-1.3v1.1Zm-.02-4.47c0,1.06,.14,1.82,.43,2.29,.47,.77,1.11,1.15,1.91,1.15,.65,0,1.22-.28,1.69-.85,.48-.57,.71-1.41,.71-2.54s-.23-2-.69-2.55c-.46-.55-1.01-.82-1.66-.82s-1.22,.28-1.69,.85c-.48,.57-.71,1.39-.71,2.46Z"/>
      <path d="M134.79,80.45v-1.72h1.49v1.72h-1.49Zm0,10.45v-8.82h1.49v8.82h-1.49Z"/>
      <path d="M144.31,89.81c-.55,.47-1.09,.8-1.6,1-.51,.19-1.06,.29-1.65,.29-.97,0-1.71-.24-2.23-.71-.52-.47-.78-1.08-.78-1.81,0-.43,.1-.83,.29-1.18,.2-.36,.45-.64,.77-.86,.32-.22,.68-.38,1.08-.49,.29-.08,.74-.15,1.33-.22,1.21-.14,2.09-.32,2.66-.51,0-.2,0-.33,0-.39,0-.61-.14-1.04-.42-1.29-.38-.34-.95-.51-1.7-.51-.7,0-1.22,.12-1.56,.37-.33,.25-.58,.68-.74,1.31l-1.46-.2c.13-.63,.35-1.13,.66-1.52,.3-.38,.74-.68,1.32-.89,.58-.21,1.24-.31,2-.31s1.36,.09,1.83,.27,.82,.4,1.04,.67c.22,.27,.38,.61,.46,1.02,.05,.25,.07,.71,.07,1.38v1.99c0,1.39,.03,2.27,.1,2.64,.06,.37,.19,.72,.38,1.06h-1.56c-.15-.31-.25-.67-.3-1.09Zm-.12-3.34c-.54,.22-1.36,.41-2.44,.56-.61,.09-1.05,.19-1.3,.3s-.45,.27-.59,.49c-.14,.21-.21,.45-.21,.71,0,.4,.15,.73,.45,1,.3,.27,.74,.4,1.32,.4s1.09-.13,1.54-.38c.45-.25,.78-.6,.99-1.03,.16-.34,.24-.84,.24-1.49v-.55Z"/>
      <path d="M147.41,88.27l1.48-.23c.08,.59,.31,1.05,.69,1.36,.38,.32,.91,.47,1.59,.47s1.2-.14,1.53-.42c.33-.28,.5-.61,.5-.98,0-.34-.15-.6-.44-.8-.2-.13-.71-.3-1.53-.51-1.1-.28-1.85-.52-2.28-.72-.42-.2-.74-.48-.96-.84-.22-.36-.33-.75-.33-1.18,0-.39,.09-.76,.27-1.09,.18-.33,.42-.61,.73-.83,.23-.17,.55-.32,.95-.44,.4-.12,.83-.18,1.29-.18,.69,0,1.3,.1,1.82,.3,.52,.2,.91,.47,1.16,.81,.25,.34,.42,.8,.51,1.37l-1.46,.2c-.07-.45-.26-.81-.58-1.06-.32-.25-.77-.38-1.35-.38-.69,0-1.18,.11-1.47,.34s-.44,.49-.44,.8c0,.19,.06,.37,.18,.52,.12,.16,.31,.29,.57,.4,.15,.06,.59,.18,1.32,.38,1.06,.28,1.79,.51,2.21,.69,.42,.18,.75,.44,.98,.78s.36,.77,.36,1.28-.15,.97-.44,1.41c-.29,.44-.71,.78-1.26,1.02-.55,.24-1.17,.36-1.86,.36-1.15,0-2.02-.24-2.62-.71-.6-.48-.98-1.18-1.15-2.12Z"/>
      <path d="M159.85,83.4v-.6h7.37v.6h-7.37Zm0,3.39v-.6h7.37v.6h-7.37Z"/>
      <g>
        <path d="M173.29,84.9c0-1.44,.15-2.6,.44-3.47,.3-.88,.74-1.55,1.32-2.03,.58-.48,1.32-.71,2.2-.71,.65,0,1.23,.13,1.72,.39,.49,.26,.9,.64,1.22,1.14,.32,.5,.57,1.1,.76,1.81,.18,.71,.27,1.67,.27,2.88,0,1.43-.15,2.58-.44,3.46-.29,.88-.73,1.55-1.32,2.03-.58,.48-1.32,.72-2.21,.72-1.17,0-2.09-.42-2.76-1.26-.8-1.01-1.2-2.66-1.2-4.95Zm1.54,0c0,2,.23,3.33,.7,3.99,.47,.66,1.04,.99,1.73,.99s1.26-.33,1.73-1c.47-.66,.7-1.99,.7-3.98s-.23-3.33-.7-3.99c-.47-.66-1.05-.99-1.75-.99s-1.23,.29-1.64,.87c-.51,.74-.77,2.11-.77,4.11Z"/>
        <path d="M183.59,90.9v-1.7h1.7v1.7h-1.7Z"/>
        <path d="M187.47,84.9c0-1.44,.15-2.6,.44-3.47,.3-.88,.74-1.55,1.32-2.03,.58-.48,1.32-.71,2.2-.71,.65,0,1.23,.13,1.72,.39,.49,.26,.9,.64,1.22,1.14,.32,.5,.57,1.1,.76,1.81,.18,.71,.27,1.67,.27,2.88,0,1.43-.15,2.58-.44,3.46-.29,.88-.73,1.55-1.32,2.03-.58,.48-1.32,.72-2.21,.72-1.17,0-2.09-.42-2.76-1.26-.8-1.01-1.2-2.66-1.2-4.95Zm1.54,0c0,2,.23,3.33,.7,3.99,.47,.66,1.04,.99,1.73,.99s1.26-.33,1.73-1c.47-.66,.7-1.99,.7-3.98s-.23-3.33-.7-3.99c-.47-.66-1.05-.99-1.75-.99s-1.23,.29-1.64,.87c-.51,.74-.77,2.11-.77,4.11Z"/>
        <path d="M197.15,88.09l1.44-.13c.12,.68,.35,1.17,.7,1.47s.78,.46,1.32,.46c.46,0,.86-.1,1.21-.32,.35-.21,.63-.49,.85-.84,.22-.35,.41-.83,.56-1.42s.22-1.21,.22-1.83c0-.07,0-.17,0-.3-.3,.48-.71,.86-1.22,1.16-.52,.3-1.08,.44-1.68,.44-1.01,0-1.86-.37-2.56-1.1s-1.05-1.69-1.05-2.89,.36-2.23,1.09-2.98c.73-.75,1.64-1.13,2.74-1.13,.79,0,1.51,.21,2.17,.64,.66,.43,1.15,1.03,1.49,1.82,.34,.79,.51,1.93,.51,3.42s-.17,2.79-.51,3.71c-.34,.92-.84,1.62-1.51,2.1-.67,.48-1.45,.72-2.34,.72-.95,0-1.73-.26-2.33-.79-.6-.53-.97-1.27-1.09-2.23Zm6.12-5.37c0-.86-.23-1.54-.69-2.04-.46-.5-1.01-.76-1.65-.76s-1.24,.27-1.73,.81-.74,1.25-.74,2.11c0,.77,.23,1.4,.7,1.89,.47,.48,1.04,.73,1.73,.73s1.26-.24,1.71-.73c.45-.48,.67-1.15,.67-2.01Z"/>
        <path d="M206.38,87.71l1.57-.13c.12,.76,.39,1.34,.81,1.72,.42,.38,.93,.58,1.53,.58,.72,0,1.33-.27,1.83-.81s.75-1.26,.75-2.16-.24-1.52-.72-2.02c-.48-.49-1.11-.74-1.88-.74-.48,0-.92,.11-1.3,.33-.39,.22-.69,.5-.91,.85l-1.4-.18,1.18-6.25h6.05v1.43h-4.86l-.66,3.27c.73-.51,1.5-.76,2.3-.76,1.06,0,1.96,.37,2.69,1.1s1.1,1.68,1.1,2.84-.32,2.05-.96,2.86c-.78,.98-1.85,1.48-3.2,1.48-1.11,0-2.01-.31-2.71-.93-.7-.62-1.1-1.44-1.2-2.47Z"/>
      </g>
      <path d="M76.95,90.9v-12.17h2.42l2.88,8.62c.27,.8,.46,1.4,.58,1.8,.14-.44,.35-1.09,.65-1.95l2.91-8.47h2.17v12.17h-1.55v-10.19l-3.54,10.19h-1.45l-3.52-10.36v10.36h-1.55Z"/>
      <path d="M97.01,88.06l1.54,.19c-.24,.9-.69,1.6-1.35,2.1s-1.5,.75-2.52,.75c-1.29,0-2.31-.4-3.07-1.19-.76-.79-1.13-1.91-1.13-3.34s.38-2.63,1.15-3.45,1.75-1.23,2.97-1.23,2.14,.4,2.89,1.2,1.12,1.93,1.12,3.39c0,.09,0,.22,0,.4h-6.57c.06,.97,.33,1.71,.82,2.22s1.11,.77,1.84,.77c.55,0,1.02-.14,1.4-.43s.69-.75,.92-1.38Zm-4.91-2.42h4.92c-.07-.74-.25-1.3-.56-1.67-.48-.58-1.09-.86-1.85-.86-.69,0-1.26,.23-1.73,.69-.47,.46-.73,1.07-.78,1.84Z"/>
      <path d="M106.18,89.81c-.55,.47-1.09,.8-1.6,1-.51,.19-1.06,.29-1.65,.29-.97,0-1.71-.24-2.23-.71-.52-.47-.78-1.08-.78-1.81,0-.43,.1-.83,.29-1.18,.2-.36,.45-.64,.77-.86,.32-.22,.68-.38,1.08-.49,.29-.08,.74-.15,1.33-.22,1.21-.14,2.09-.32,2.66-.51,0-.2,0-.33,0-.39,0-.61-.14-1.04-.42-1.29-.38-.34-.95-.51-1.7-.51-.7,0-1.22,.12-1.56,.37-.33,.25-.58,.68-.74,1.31l-1.46-.2c.13-.63,.35-1.13,.66-1.52,.3-.38,.74-.68,1.32-.89,.58-.21,1.24-.31,2-.31s1.36,.09,1.83,.27,.82,.4,1.04,.67c.22,.27,.38,.61,.46,1.02,.05,.25,.07,.71,.07,1.38v1.99c0,1.39,.03,2.27,.1,2.64,.06,.37,.19,.72,.38,1.06h-1.56c-.15-.31-.25-.67-.3-1.09Zm-.12-3.34c-.54,.22-1.36,.41-2.44,.56-.61,.09-1.05,.19-1.3,.3s-.45,.27-.59,.49c-.14,.21-.21,.45-.21,.71,0,.4,.15,.73,.45,1,.3,.27,.74,.4,1.32,.4s1.09-.13,1.54-.38c.45-.25,.78-.6,.99-1.03,.16-.34,.24-.84,.24-1.49v-.55Z"/>
      <path d="M109.88,90.9v-8.82h1.34v1.25c.65-.97,1.58-1.45,2.81-1.45,.53,0,1.02,.1,1.47,.29,.45,.19,.78,.44,1,.75s.38,.68,.46,1.1c.06,.28,.08,.76,.08,1.45v5.42h-1.49v-5.36c0-.61-.06-1.06-.17-1.37-.12-.3-.32-.54-.62-.72-.3-.18-.64-.27-1.04-.27-.64,0-1.19,.2-1.65,.61-.46,.4-.69,1.17-.69,2.3v4.81h-1.49Z"/>
      <path d="M126.71,90.9h-1.39v-12.17h1.49v4.34c.63-.79,1.44-1.19,2.42-1.19,.54,0,1.06,.11,1.54,.33,.48,.22,.88,.53,1.2,.92,.31,.4,.56,.87,.73,1.43s.27,1.16,.27,1.79c0,1.51-.37,2.68-1.12,3.5s-1.64,1.24-2.69,1.24-1.86-.43-2.45-1.3v1.1Zm-.02-4.47c0,1.06,.14,1.82,.43,2.29,.47,.77,1.11,1.15,1.91,1.15,.65,0,1.22-.28,1.69-.85,.48-.57,.71-1.41,.71-2.54s-.23-2-.69-2.55c-.46-.55-1.01-.82-1.66-.82s-1.22,.28-1.69,.85c-.48,.57-.71,1.39-.71,2.46Z"/>
      <path d="M134.79,80.45v-1.72h1.49v1.72h-1.49Zm0,10.45v-8.82h1.49v8.82h-1.49Z"/>
      <path d="M144.31,89.81c-.55,.47-1.09,.8-1.6,1-.51,.19-1.06,.29-1.65,.29-.97,0-1.71-.24-2.23-.71-.52-.47-.78-1.08-.78-1.81,0-.43,.1-.83,.29-1.18,.2-.36,.45-.64,.77-.86,.32-.22,.68-.38,1.08-.49,.29-.08,.74-.15,1.33-.22,1.21-.14,2.09-.32,2.66-.51,0-.2,0-.33,0-.39,0-.61-.14-1.04-.42-1.29-.38-.34-.95-.51-1.7-.51-.7,0-1.22,.12-1.56,.37-.33,.25-.58,.68-.74,1.31l-1.46-.2c.13-.63,.35-1.13,.66-1.52,.3-.38,.74-.68,1.32-.89,.58-.21,1.24-.31,2-.31s1.36,.09,1.83,.27,.82,.4,1.04,.67c.22,.27,.38,.61,.46,1.02,.05,.25,.07,.71,.07,1.38v1.99c0,1.39,.03,2.27,.1,2.64,.06,.37,.19,.72,.38,1.06h-1.56c-.15-.31-.25-.67-.3-1.09Zm-.12-3.34c-.54,.22-1.36,.41-2.44,.56-.61,.09-1.05,.19-1.3,.3s-.45,.27-.59,.49c-.14,.21-.21,.45-.21,.71,0,.4,.15,.73,.45,1,.3,.27,.74,.4,1.32,.4s1.09-.13,1.54-.38c.45-.25,.78-.6,.99-1.03,.16-.34,.24-.84,.24-1.49v-.55Z"/>
      <path d="M147.41,88.27l1.48-.23c.08,.59,.31,1.05,.69,1.36,.38,.32,.91,.47,1.59,.47s1.2-.14,1.53-.42c.33-.28,.5-.61,.5-.98,0-.34-.15-.6-.44-.8-.2-.13-.71-.3-1.53-.51-1.1-.28-1.85-.52-2.28-.72-.42-.2-.74-.48-.96-.84-.22-.36-.33-.75-.33-1.18,0-.39,.09-.76,.27-1.09,.18-.33,.42-.61,.73-.83,.23-.17,.55-.32,.95-.44,.4-.12,.83-.18,1.29-.18,.69,0,1.3,.1,1.82,.3,.52,.2,.91,.47,1.16,.81,.25,.34,.42,.8,.51,1.37l-1.46,.2c-.07-.45-.26-.81-.58-1.06-.32-.25-.77-.38-1.35-.38-.69,0-1.18,.11-1.47,.34s-.44,.49-.44,.8c0,.19,.06,.37,.18,.52,.12,.16,.31,.29,.57,.4,.15,.06,.59,.18,1.32,.38,1.06,.28,1.79,.51,2.21,.69,.42,.18,.75,.44,.98,.78s.36,.77,.36,1.28-.15,.97-.44,1.41c-.29,.44-.71,.78-1.26,1.02-.55,.24-1.17,.36-1.86,.36-1.15,0-2.02-.24-2.62-.71-.6-.48-.98-1.18-1.15-2.12Z"/>
      <path d="M159.85,83.4v-.6h7.37v.6h-7.37Zm0,3.39v-.6h7.37v.6h-7.37Z"/>
      <g>
        <path d="M173.29,84.9c0-1.44,.15-2.6,.44-3.47,.3-.88,.74-1.55,1.32-2.03,.58-.48,1.32-.71,2.2-.71,.65,0,1.23,.13,1.72,.39,.49,.26,.9,.64,1.22,1.14,.32,.5,.57,1.1,.76,1.81,.18,.71,.27,1.67,.27,2.88,0,1.43-.15,2.58-.44,3.46-.29,.88-.73,1.55-1.32,2.03-.58,.48-1.32,.72-2.21,.72-1.17,0-2.09-.42-2.76-1.26-.8-1.01-1.2-2.66-1.2-4.95Zm1.54,0c0,2,.23,3.33,.7,3.99,.47,.66,1.04,.99,1.73,.99s1.26-.33,1.73-1c.47-.66,.7-1.99,.7-3.98s-.23-3.33-.7-3.99c-.47-.66-1.05-.99-1.75-.99s-1.23,.29-1.64,.87c-.51,.74-.77,2.11-.77,4.11Z"/>
        <path d="M183.59,90.9v-1.7h1.7v1.7h-1.7Z"/>
        <path d="M187.47,84.9c0-1.44,.15-2.6,.44-3.47,.3-.88,.74-1.55,1.32-2.03,.58-.48,1.32-.71,2.2-.71,.65,0,1.23,.13,1.72,.39,.49,.26,.9,.64,1.22,1.14,.32,.5,.57,1.1,.76,1.81,.18,.71,.27,1.67,.27,2.88,0,1.43-.15,2.58-.44,3.46-.29,.88-.73,1.55-1.32,2.03-.58,.48-1.32,.72-2.21,.72-1.17,0-2.09-.42-2.76-1.26-.8-1.01-1.2-2.66-1.2-4.95Zm1.54,0c0,2,.23,3.33,.7,3.99,.47,.66,1.04,.99,1.73,.99s1.26-.33,1.73-1c.47-.66,.7-1.99,.7-3.98s-.23-3.33-.7-3.99c-.47-.66-1.05-.99-1.75-.99s-1.23,.29-1.64,.87c-.51,.74-.77,2.11-.77,4.11Z"/>
        <path d="M197.15,88.09l1.44-.13c.12,.68,.35,1.17,.7,1.47s.78,.46,1.32,.46c.46,0,.86-.1,1.21-.32,.35-.21,.63-.49,.85-.84,.22-.35,.41-.83,.56-1.42s.22-1.21,.22-1.83c0-.07,0-.17,0-.3-.3,.48-.71,.86-1.22,1.16-.52,.3-1.08,.44-1.68,.44-1.01,0-1.86-.37-2.56-1.1s-1.05-1.69-1.05-2.89,.36-2.23,1.09-2.98c.73-.75,1.64-1.13,2.74-1.13,.79,0,1.51,.21,2.17,.64,.66,.43,1.15,1.03,1.49,1.82,.34,.79,.51,1.93,.51,3.42s-.17,2.79-.51,3.71c-.34,.92-.84,1.62-1.51,2.1-.67,.48-1.45,.72-2.34,.72-.95,0-1.73-.26-2.33-.79-.6-.53-.97-1.27-1.09-2.23Zm6.12-5.37c0-.86-.23-1.54-.69-2.04-.46-.5-1.01-.76-1.65-.76s-1.24,.27-1.73,.81-.74,1.25-.74,2.11c0,.77,.23,1.4,.7,1.89,.47,.48,1.04,.73,1.73,.73s1.26-.24,1.71-.73c.45-.48,.67-1.15,.67-2.01Z"/>
        <path d="M206.38,87.71l1.57-.13c.12,.76,.39,1.34,.81,1.72,.42,.38,.93,.58,1.53,.58,.72,0,1.33-.27,1.83-.81s.75-1.26,.75-2.16-.24-1.52-.72-2.02c-.48-.49-1.11-.74-1.88-.74-.48,0-.92,.11-1.3,.33-.39,.22-.69,.5-.91,.85l-1.4-.18,1.18-6.25h6.05v1.43h-4.86l-.66,3.27c.73-.51,1.5-.76,2.3-.76,1.06,0,1.96,.37,2.69,1.1s1.1,1.68,1.1,2.84-.32,2.05-.96,2.86c-.78,.98-1.85,1.48-3.2,1.48-1.11,0-2.01-.31-2.71-.93-.7-.62-1.1-1.44-1.2-2.47Z"/>
      </g>
      <path d="M104.12,112.37l1.61,.41c-.34,1.32-.94,2.33-1.82,3.03-.88,.69-1.95,1.04-3.22,1.04s-2.38-.27-3.2-.8c-.82-.53-1.45-1.31-1.88-2.32-.43-1.01-.64-2.1-.64-3.26,0-1.27,.24-2.37,.73-3.32,.48-.94,1.17-1.66,2.07-2.15,.89-.49,1.88-.73,2.95-.73,1.22,0,2.24,.31,3.07,.93s1.41,1.49,1.73,2.61l-1.59,.37c-.28-.89-.69-1.53-1.23-1.93s-1.21-.61-2.03-.61c-.94,0-1.72,.22-2.34,.67-.63,.45-1.07,1.05-1.32,1.81-.25,.75-.38,1.53-.38,2.34,0,1.03,.15,1.94,.45,2.71,.3,.77,.77,1.35,1.41,1.73s1.33,.57,2.07,.57c.9,0,1.67-.26,2.29-.78s1.05-1.29,1.27-2.32Z"/>
      <path d="M116.4,112.37l1.61,.41c-.34,1.32-.94,2.33-1.82,3.03-.88,.69-1.95,1.04-3.22,1.04s-2.38-.27-3.2-.8c-.82-.53-1.45-1.31-1.88-2.32-.43-1.01-.64-2.1-.64-3.26,0-1.27,.24-2.37,.73-3.32,.48-.94,1.17-1.66,2.07-2.15,.89-.49,1.88-.73,2.95-.73,1.22,0,2.24,.31,3.07,.93s1.41,1.49,1.73,2.61l-1.59,.37c-.28-.89-.69-1.53-1.23-1.93s-1.21-.61-2.03-.61c-.94,0-1.72,.22-2.34,.67-.63,.45-1.07,1.05-1.32,1.81-.25,.75-.38,1.53-.38,2.34,0,1.03,.15,1.94,.45,2.71,.3,.77,.77,1.35,1.41,1.73s1.33,.57,2.07,.57c.9,0,1.67-.26,2.29-.78s1.05-1.29,1.27-2.32Z"/>
      <path d="M128.67,112.37l1.61,.41c-.34,1.32-.94,2.33-1.82,3.03-.88,.69-1.95,1.04-3.22,1.04s-2.38-.27-3.2-.8c-.82-.53-1.45-1.31-1.88-2.32-.43-1.01-.64-2.1-.64-3.26,0-1.27,.24-2.37,.73-3.32,.48-.94,1.17-1.66,2.07-2.15,.89-.49,1.88-.73,2.95-.73,1.22,0,2.24,.31,3.07,.93s1.41,1.49,1.73,2.61l-1.59,.37c-.28-.89-.69-1.53-1.23-1.93s-1.21-.61-2.03-.61c-.94,0-1.72,.22-2.34,.67-.63,.45-1.07,1.05-1.32,1.81-.25,.75-.38,1.53-.38,2.34,0,1.03,.15,1.94,.45,2.71,.3,.77,.77,1.35,1.41,1.73s1.33,.57,2.07,.57c.9,0,1.67-.26,2.29-.78s1.05-1.29,1.27-2.32Z"/>
      <path d="M135.42,109.14v-.6h7.37v.6h-7.37Zm0,3.39v-.6h7.37v.6h-7.37Z"/>
      <g>
        <path d="M148.85,110.64c0-1.44,.15-2.6,.44-3.47,.3-.88,.74-1.55,1.32-2.03,.58-.48,1.32-.71,2.2-.71,.65,0,1.23,.13,1.72,.39,.49,.26,.9,.64,1.22,1.14,.32,.5,.57,1.1,.76,1.81,.18,.71,.27,1.67,.27,2.88,0,1.43-.15,2.58-.44,3.46-.29,.88-.73,1.55-1.32,2.03-.58,.48-1.32,.72-2.21,.72-1.17,0-2.09-.42-2.76-1.26-.8-1.01-1.2-2.66-1.2-4.95Zm1.54,0c0,2,.23,3.33,.7,3.99,.47,.66,1.04,.99,1.73,.99s1.26-.33,1.73-1c.47-.66,.7-1.99,.7-3.98s-.23-3.33-.7-3.99c-.47-.66-1.05-.99-1.75-.99s-1.23,.29-1.64,.87c-.51,.74-.77,2.11-.77,4.11Z"/>
        <path d="M159.15,116.64v-1.7h1.7v1.7h-1.7Z"/>
        <path d="M170.78,107.45l-1.49,.12c-.13-.59-.32-1.01-.56-1.28-.4-.43-.9-.64-1.49-.64-.48,0-.89,.13-1.25,.4-.47,.34-.84,.84-1.11,1.5s-.41,1.6-.42,2.81c.36-.55,.8-.95,1.32-1.22s1.07-.4,1.64-.4c1,0,1.84,.37,2.54,1.1,.7,.73,1.05,1.68,1.05,2.84,0,.76-.16,1.47-.49,2.13-.33,.66-.78,1.16-1.36,1.51s-1.23,.52-1.96,.52c-1.25,0-2.26-.46-3.05-1.37-.79-.92-1.18-2.43-1.18-4.53,0-2.35,.43-4.06,1.3-5.13,.76-.93,1.78-1.39,3.06-1.39,.96,0,1.74,.27,2.35,.81,.61,.54,.98,1.28,1.1,2.22Zm-6.1,5.25c0,.51,.11,1.01,.33,1.48,.22,.47,.52,.83,.92,1.07,.39,.25,.81,.37,1.24,.37,.63,0,1.17-.25,1.63-.76s.68-1.2,.68-2.08-.22-1.5-.67-1.99c-.45-.48-1.01-.73-1.69-.73s-1.25,.24-1.72,.73c-.47,.48-.71,1.12-.71,1.9Z"/>
        <path d="M172.58,106.06v-1.44h7.88v1.16c-.77,.82-1.54,1.92-2.3,3.29-.76,1.37-1.35,2.77-1.76,4.22-.3,1.02-.49,2.13-.57,3.35h-1.54c.02-.96,.2-2.11,.56-3.47s.88-2.66,1.55-3.92c.67-1.26,1.39-2.32,2.15-3.18h-5.96Z"/>
        <path d="M182.04,106.06v-1.44h7.88v1.16c-.77,.82-1.54,1.92-2.3,3.29-.76,1.37-1.35,2.77-1.76,4.22-.3,1.02-.49,2.13-.57,3.35h-1.54c.02-.96,.2-2.11,.56-3.47s.88-2.66,1.55-3.92c.67-1.26,1.39-2.32,2.15-3.18h-5.96Z"/>
      </g>
      <path d="M104.12,112.37l1.61,.41c-.34,1.32-.94,2.33-1.82,3.03-.88,.69-1.95,1.04-3.22,1.04s-2.38-.27-3.2-.8c-.82-.53-1.45-1.31-1.88-2.32-.43-1.01-.64-2.1-.64-3.26,0-1.27,.24-2.37,.73-3.32,.48-.94,1.17-1.66,2.07-2.15,.89-.49,1.88-.73,2.95-.73,1.22,0,2.24,.31,3.07,.93s1.41,1.49,1.73,2.61l-1.59,.37c-.28-.89-.69-1.53-1.23-1.93s-1.21-.61-2.03-.61c-.94,0-1.72,.22-2.34,.67-.63,.45-1.07,1.05-1.32,1.81-.25,.75-.38,1.53-.38,2.34,0,1.03,.15,1.94,.45,2.71,.3,.77,.77,1.35,1.41,1.73s1.33,.57,2.07,.57c.9,0,1.67-.26,2.29-.78s1.05-1.29,1.27-2.32Z"/>
      <path d="M116.4,112.37l1.61,.41c-.34,1.32-.94,2.33-1.82,3.03-.88,.69-1.95,1.04-3.22,1.04s-2.38-.27-3.2-.8c-.82-.53-1.45-1.31-1.88-2.32-.43-1.01-.64-2.1-.64-3.26,0-1.27,.24-2.37,.73-3.32,.48-.94,1.17-1.66,2.07-2.15,.89-.49,1.88-.73,2.95-.73,1.22,0,2.24,.31,3.07,.93s1.41,1.49,1.73,2.61l-1.59,.37c-.28-.89-.69-1.53-1.23-1.93s-1.21-.61-2.03-.61c-.94,0-1.72,.22-2.34,.67-.63,.45-1.07,1.05-1.32,1.81-.25,.75-.38,1.53-.38,2.34,0,1.03,.15,1.94,.45,2.71,.3,.77,.77,1.35,1.41,1.73s1.33,.57,2.07,.57c.9,0,1.67-.26,2.29-.78s1.05-1.29,1.27-2.32Z"/>
      <path d="M128.67,112.37l1.61,.41c-.34,1.32-.94,2.33-1.82,3.03-.88,.69-1.95,1.04-3.22,1.04s-2.38-.27-3.2-.8c-.82-.53-1.45-1.31-1.88-2.32-.43-1.01-.64-2.1-.64-3.26,0-1.27,.24-2.37,.73-3.32,.48-.94,1.17-1.66,2.07-2.15,.89-.49,1.88-.73,2.95-.73,1.22,0,2.24,.31,3.07,.93s1.41,1.49,1.73,2.61l-1.59,.37c-.28-.89-.69-1.53-1.23-1.93s-1.21-.61-2.03-.61c-.94,0-1.72,.22-2.34,.67-.63,.45-1.07,1.05-1.32,1.81-.25,.75-.38,1.53-.38,2.34,0,1.03,.15,1.94,.45,2.71,.3,.77,.77,1.35,1.41,1.73s1.33,.57,2.07,.57c.9,0,1.67-.26,2.29-.78s1.05-1.29,1.27-2.32Z"/>
      <path d="M135.42,109.14v-.6h7.37v.6h-7.37Zm0,3.39v-.6h7.37v.6h-7.37Z"/>
      <g>
        <path d="M148.85,110.64c0-1.44,.15-2.6,.44-3.47,.3-.88,.74-1.55,1.32-2.03,.58-.48,1.32-.71,2.2-.71,.65,0,1.23,.13,1.72,.39,.49,.26,.9,.64,1.22,1.14,.32,.5,.57,1.1,.76,1.81,.18,.71,.27,1.67,.27,2.88,0,1.43-.15,2.58-.44,3.46-.29,.88-.73,1.55-1.32,2.03-.58,.48-1.32,.72-2.21,.72-1.17,0-2.09-.42-2.76-1.26-.8-1.01-1.2-2.66-1.2-4.95Zm1.54,0c0,2,.23,3.33,.7,3.99,.47,.66,1.04,.99,1.73,.99s1.26-.33,1.73-1c.47-.66,.7-1.99,.7-3.98s-.23-3.33-.7-3.99c-.47-.66-1.05-.99-1.75-.99s-1.23,.29-1.64,.87c-.51,.74-.77,2.11-.77,4.11Z"/>
        <path d="M159.15,116.64v-1.7h1.7v1.7h-1.7Z"/>
        <path d="M170.78,107.45l-1.49,.12c-.13-.59-.32-1.01-.56-1.28-.4-.43-.9-.64-1.49-.64-.48,0-.89,.13-1.25,.4-.47,.34-.84,.84-1.11,1.5s-.41,1.6-.42,2.81c.36-.55,.8-.95,1.32-1.22s1.07-.4,1.64-.4c1,0,1.84,.37,2.54,1.1,.7,.73,1.05,1.68,1.05,2.84,0,.76-.16,1.47-.49,2.13-.33,.66-.78,1.16-1.36,1.51s-1.23,.52-1.96,.52c-1.25,0-2.26-.46-3.05-1.37-.79-.92-1.18-2.43-1.18-4.53,0-2.35,.43-4.06,1.3-5.13,.76-.93,1.78-1.39,3.06-1.39,.96,0,1.74,.27,2.35,.81,.61,.54,.98,1.28,1.1,2.22Zm-6.1,5.25c0,.51,.11,1.01,.33,1.48,.22,.47,.52,.83,.92,1.07,.39,.25,.81,.37,1.24,.37,.63,0,1.17-.25,1.63-.76s.68-1.2,.68-2.08-.22-1.5-.67-1.99c-.45-.48-1.01-.73-1.69-.73s-1.25,.24-1.72,.73c-.47,.48-.71,1.12-.71,1.9Z"/>
        <path d="M172.58,106.06v-1.44h7.88v1.16c-.77,.82-1.54,1.92-2.3,3.29-.76,1.37-1.35,2.77-1.76,4.22-.3,1.02-.49,2.13-.57,3.35h-1.54c.02-.96,.2-2.11,.56-3.47s.88-2.66,1.55-3.92c.67-1.26,1.39-2.32,2.15-3.18h-5.96Z"/>
        <path d="M182.04,106.06v-1.44h7.88v1.16c-.77,.82-1.54,1.92-2.3,3.29-.76,1.37-1.35,2.77-1.76,4.22-.3,1.02-.49,2.13-.57,3.35h-1.54c.02-.96,.2-2.11,.56-3.47s.88-2.66,1.55-3.92c.67-1.26,1.39-2.32,2.15-3.18h-5.96Z"/>
      </g>
      <path d="M104.12,112.37l1.61,.41c-.34,1.32-.94,2.33-1.82,3.03-.88,.69-1.95,1.04-3.22,1.04s-2.38-.27-3.2-.8c-.82-.53-1.45-1.31-1.88-2.32-.43-1.01-.64-2.1-.64-3.26,0-1.27,.24-2.37,.73-3.32,.48-.94,1.17-1.66,2.07-2.15,.89-.49,1.88-.73,2.95-.73,1.22,0,2.24,.31,3.07,.93s1.41,1.49,1.73,2.61l-1.59,.37c-.28-.89-.69-1.53-1.23-1.93s-1.21-.61-2.03-.61c-.94,0-1.72,.22-2.34,.67-.63,.45-1.07,1.05-1.32,1.81-.25,.75-.38,1.53-.38,2.34,0,1.03,.15,1.94,.45,2.71,.3,.77,.77,1.35,1.41,1.73s1.33,.57,2.07,.57c.9,0,1.67-.26,2.29-.78s1.05-1.29,1.27-2.32Z"/>
      <path d="M116.4,112.37l1.61,.41c-.34,1.32-.94,2.33-1.82,3.03-.88,.69-1.95,1.04-3.22,1.04s-2.38-.27-3.2-.8c-.82-.53-1.45-1.31-1.88-2.32-.43-1.01-.64-2.1-.64-3.26,0-1.27,.24-2.37,.73-3.32,.48-.94,1.17-1.66,2.07-2.15,.89-.49,1.88-.73,2.95-.73,1.22,0,2.24,.31,3.07,.93s1.41,1.49,1.73,2.61l-1.59,.37c-.28-.89-.69-1.53-1.23-1.93s-1.21-.61-2.03-.61c-.94,0-1.72,.22-2.34,.67-.63,.45-1.07,1.05-1.32,1.81-.25,.75-.38,1.53-.38,2.34,0,1.03,.15,1.94,.45,2.71,.3,.77,.77,1.35,1.41,1.73s1.33,.57,2.07,.57c.9,0,1.67-.26,2.29-.78s1.05-1.29,1.27-2.32Z"/>
      <path d="M128.67,112.37l1.61,.41c-.34,1.32-.94,2.33-1.82,3.03-.88,.69-1.95,1.04-3.22,1.04s-2.38-.27-3.2-.8c-.82-.53-1.45-1.31-1.88-2.32-.43-1.01-.64-2.1-.64-3.26,0-1.27,.24-2.37,.73-3.32,.48-.94,1.17-1.66,2.07-2.15,.89-.49,1.88-.73,2.95-.73,1.22,0,2.24,.31,3.07,.93s1.41,1.49,1.73,2.61l-1.59,.37c-.28-.89-.69-1.53-1.23-1.93s-1.21-.61-2.03-.61c-.94,0-1.72,.22-2.34,.67-.63,.45-1.07,1.05-1.32,1.81-.25,.75-.38,1.53-.38,2.34,0,1.03,.15,1.94,.45,2.71,.3,.77,.77,1.35,1.41,1.73s1.33,.57,2.07,.57c.9,0,1.67-.26,2.29-.78s1.05-1.29,1.27-2.32Z"/>
      <path d="M135.42,109.14v-.6h7.37v.6h-7.37Zm0,3.39v-.6h7.37v.6h-7.37Z"/>
      <g>
        <path d="M148.85,110.64c0-1.44,.15-2.6,.44-3.47,.3-.88,.74-1.55,1.32-2.03,.58-.48,1.32-.71,2.2-.71,.65,0,1.23,.13,1.72,.39,.49,.26,.9,.64,1.22,1.14,.32,.5,.57,1.1,.76,1.81,.18,.71,.27,1.67,.27,2.88,0,1.43-.15,2.58-.44,3.46-.29,.88-.73,1.55-1.32,2.03-.58,.48-1.32,.72-2.21,.72-1.17,0-2.09-.42-2.76-1.26-.8-1.01-1.2-2.66-1.2-4.95Zm1.54,0c0,2,.23,3.33,.7,3.99,.47,.66,1.04,.99,1.73,.99s1.26-.33,1.73-1c.47-.66,.7-1.99,.7-3.98s-.23-3.33-.7-3.99c-.47-.66-1.05-.99-1.75-.99s-1.23,.29-1.64,.87c-.51,.74-.77,2.11-.77,4.11Z"/>
        <path d="M159.15,116.64v-1.7h1.7v1.7h-1.7Z"/>
        <path d="M170.78,107.45l-1.49,.12c-.13-.59-.32-1.01-.56-1.28-.4-.43-.9-.64-1.49-.64-.48,0-.89,.13-1.25,.4-.47,.34-.84,.84-1.11,1.5s-.41,1.6-.42,2.81c.36-.55,.8-.95,1.32-1.22s1.07-.4,1.64-.4c1,0,1.84,.37,2.54,1.1,.7,.73,1.05,1.68,1.05,2.84,0,.76-.16,1.47-.49,2.13-.33,.66-.78,1.16-1.36,1.51s-1.23,.52-1.96,.52c-1.25,0-2.26-.46-3.05-1.37-.79-.92-1.18-2.43-1.18-4.53,0-2.35,.43-4.06,1.3-5.13,.76-.93,1.78-1.39,3.06-1.39,.96,0,1.74,.27,2.35,.81,.61,.54,.98,1.28,1.1,2.22Zm-6.1,5.25c0,.51,.11,1.01,.33,1.48,.22,.47,.52,.83,.92,1.07,.39,.25,.81,.37,1.24,.37,.63,0,1.17-.25,1.63-.76s.68-1.2,.68-2.08-.22-1.5-.67-1.99c-.45-.48-1.01-.73-1.69-.73s-1.25,.24-1.72,.73c-.47,.48-.71,1.12-.71,1.9Z"/>
        <path d="M172.58,106.06v-1.44h7.88v1.16c-.77,.82-1.54,1.92-2.3,3.29-.76,1.37-1.35,2.77-1.76,4.22-.3,1.02-.49,2.13-.57,3.35h-1.54c.02-.96,.2-2.11,.56-3.47s.88-2.66,1.55-3.92c.67-1.26,1.39-2.32,2.15-3.18h-5.96Z"/>
        <path d="M182.04,106.06v-1.44h7.88v1.16c-.77,.82-1.54,1.92-2.3,3.29-.76,1.37-1.35,2.77-1.76,4.22-.3,1.02-.49,2.13-.57,3.35h-1.54c.02-.96,.2-2.11,.56-3.47s.88-2.66,1.55-3.92c.67-1.26,1.39-2.32,2.15-3.18h-5.96Z"/>
      </g>
      <rect class="cls-4" x="55.45" width="369.43" height="369.43"/>
    </g>
    <g>
      <path class="cls-1" d="M23.85,352.72c0-1.18,.12-2.14,.37-2.86,.24-.72,.61-1.28,1.09-1.67s1.09-.59,1.81-.59c.54,0,1.01,.11,1.42,.32,.41,.22,.74,.53,1,.94,.26,.41,.47,.9,.62,1.49,.15,.58,.23,1.38,.23,2.37,0,1.18-.12,2.12-.36,2.85-.24,.72-.6,1.28-1.08,1.68-.48,.39-1.09,.59-1.82,.59-.97,0-1.73-.35-2.28-1.04-.66-.83-.99-2.19-.99-4.07Zm1.26,0c0,1.65,.19,2.74,.58,3.28,.39,.54,.86,.82,1.43,.82s1.04-.27,1.43-.82,.58-1.64,.58-3.28-.19-2.75-.58-3.29-.86-.81-1.44-.81-1.02,.24-1.35,.72c-.42,.61-.64,1.74-.64,3.38Z"/>
      <path class="cls-1" d="M32.33,357.66v-1.4h1.4v1.4h-1.4Z"/>
      <path class="cls-1" d="M35.52,352.72c0-1.18,.12-2.14,.37-2.86,.24-.72,.61-1.28,1.09-1.67s1.09-.59,1.81-.59c.54,0,1.01,.11,1.42,.32,.41,.22,.74,.53,1,.94,.26,.41,.47,.9,.62,1.49,.15,.58,.23,1.38,.23,2.37,0,1.18-.12,2.12-.36,2.85-.24,.72-.6,1.28-1.08,1.68-.48,.39-1.09,.59-1.82,.59-.97,0-1.73-.35-2.28-1.04-.66-.83-.99-2.19-.99-4.07Zm1.26,0c0,1.65,.19,2.74,.58,3.28,.39,.54,.86,.82,1.43,.82s1.04-.27,1.43-.82,.58-1.64,.58-3.28-.19-2.75-.58-3.29-.86-.81-1.44-.81-1.02,.24-1.35,.72c-.42,.61-.64,1.74-.64,3.38Z"/>
      <path class="cls-1" d="M43.31,352.72c0-1.18,.12-2.14,.37-2.86,.24-.72,.61-1.28,1.09-1.67s1.09-.59,1.81-.59c.54,0,1.01,.11,1.42,.32,.41,.22,.74,.53,1,.94,.26,.41,.47,.9,.62,1.49,.15,.58,.23,1.38,.23,2.37,0,1.18-.12,2.12-.36,2.85-.24,.72-.6,1.28-1.08,1.68-.48,.39-1.09,.59-1.82,.59-.97,0-1.73-.35-2.28-1.04-.66-.83-.99-2.19-.99-4.07Zm1.26,0c0,1.65,.19,2.74,.58,3.28,.39,.54,.86,.82,1.43,.82s1.04-.27,1.43-.82,.58-1.64,.58-3.28-.19-2.75-.58-3.29-.86-.81-1.44-.81-1.02,.24-1.35,.72c-.42,.61-.64,1.74-.64,3.38Z"/>
    </g>
    <g>
      <path class="cls-1" d="M23.85,268.76c0-1.18,.12-2.14,.37-2.86,.24-.72,.61-1.28,1.09-1.67s1.09-.59,1.81-.59c.54,0,1.01,.11,1.42,.32,.41,.22,.74,.53,1,.94,.26,.41,.47,.9,.62,1.49,.15,.58,.23,1.38,.23,2.37,0,1.18-.12,2.12-.36,2.85-.24,.72-.6,1.28-1.08,1.68-.48,.39-1.09,.59-1.82,.59-.97,0-1.73-.35-2.28-1.04-.66-.83-.99-2.19-.99-4.07Zm1.26,0c0,1.65,.19,2.74,.58,3.28,.39,.54,.86,.82,1.43,.82s1.04-.27,1.43-.82,.58-1.64,.58-3.28-.19-2.75-.58-3.29-.86-.81-1.44-.81-1.02,.24-1.35,.72c-.42,.61-.64,1.74-.64,3.38Z"/>
      <path class="cls-1" d="M32.33,273.7v-1.4h1.4v1.4h-1.4Z"/>
      <path class="cls-1" d="M41.99,272.52v1.18h-6.62c0-.3,.04-.58,.14-.85,.17-.45,.44-.9,.81-1.33s.91-.94,1.61-1.52c1.09-.89,1.83-1.6,2.21-2.12,.38-.52,.57-1.01,.57-1.48s-.17-.9-.52-1.23c-.35-.34-.8-.5-1.36-.5-.59,0-1.07,.18-1.42,.53s-.54,.85-.54,1.48l-1.26-.13c.09-.94,.41-1.66,.98-2.16,.56-.5,1.32-.74,2.28-.74s1.72,.27,2.28,.8,.84,1.19,.84,1.98c0,.4-.08,.79-.25,1.18s-.44,.79-.82,1.22-1.01,1.02-1.9,1.76c-.74,.62-1.21,1.04-1.42,1.26-.21,.22-.38,.44-.52,.67h4.92Z"/>
      <path class="cls-1" d="M43.31,271.08l1.29-.11c.1,.63,.32,1.1,.67,1.42,.35,.32,.77,.48,1.26,.48,.59,0,1.09-.22,1.5-.67s.62-1.04,.62-1.78-.2-1.26-.59-1.66-.91-.61-1.55-.61c-.4,0-.75,.09-1.07,.27-.32,.18-.57,.41-.75,.7l-1.16-.15,.97-5.15h4.98v1.18h-4l-.54,2.69c.6-.42,1.23-.63,1.89-.63,.88,0,1.61,.3,2.21,.91s.9,1.39,.9,2.34-.26,1.69-.79,2.35c-.64,.81-1.52,1.22-2.63,1.22-.91,0-1.66-.25-2.23-.77s-.91-1.19-.99-2.03Z"/>
    </g>
    <g>
      <path class="cls-1" d="M23.85,184.8c0-1.19,.12-2.14,.37-2.86s.61-1.28,1.09-1.67,1.09-.59,1.81-.59c.54,0,1.01,.11,1.42,.32s.74,.53,1,.94,.47,.9,.62,1.49,.23,1.38,.23,2.37c0,1.18-.12,2.13-.36,2.85-.24,.72-.6,1.28-1.08,1.67-.48,.39-1.09,.59-1.82,.59-.97,0-1.73-.35-2.28-1.04-.66-.83-.99-2.19-.99-4.07Zm1.26,0c0,1.65,.19,2.74,.58,3.28,.39,.54,.86,.82,1.43,.82s1.04-.27,1.43-.82,.58-1.64,.58-3.28-.19-2.75-.58-3.29-.86-.81-1.44-.81-1.02,.24-1.35,.72c-.42,.61-.64,1.74-.64,3.38Z"/>
      <path class="cls-1" d="M32.33,189.74v-1.4h1.4v1.4h-1.4Z"/>
      <path class="cls-1" d="M35.52,187.12l1.29-.11c.1,.63,.32,1.1,.67,1.42,.35,.32,.77,.48,1.26,.48,.59,0,1.09-.22,1.5-.67,.41-.45,.62-1.04,.62-1.78s-.2-1.26-.59-1.66-.91-.61-1.55-.61c-.4,0-.75,.09-1.07,.27s-.57,.41-.75,.7l-1.16-.15,.97-5.15h4.98v1.18h-4l-.54,2.69c.6-.42,1.23-.63,1.89-.63,.88,0,1.61,.3,2.21,.91s.9,1.39,.9,2.34-.26,1.69-.79,2.35c-.64,.81-1.52,1.22-2.63,1.22-.91,0-1.66-.26-2.23-.77-.58-.51-.91-1.19-.99-2.03Z"/>
      <path class="cls-1" d="M43.31,184.8c0-1.19,.12-2.14,.37-2.86s.61-1.28,1.09-1.67,1.09-.59,1.81-.59c.54,0,1.01,.11,1.42,.32s.74,.53,1,.94,.47,.9,.62,1.49,.23,1.38,.23,2.37c0,1.18-.12,2.13-.36,2.85-.24,.72-.6,1.28-1.08,1.67-.48,.39-1.09,.59-1.82,.59-.97,0-1.73-.35-2.28-1.04-.66-.83-.99-2.19-.99-4.07Zm1.26,0c0,1.65,.19,2.74,.58,3.28,.39,.54,.86,.82,1.43,.82s1.04-.27,1.43-.82,.58-1.64,.58-3.28-.19-2.75-.58-3.29-.86-.81-1.44-.81-1.02,.24-1.35,.72c-.42,.61-.64,1.74-.64,3.38Z"/>
    </g>
    <g>
      <path class="cls-1" d="M23.85,100.83c0-1.19,.12-2.14,.37-2.86s.61-1.28,1.09-1.67,1.09-.59,1.81-.59c.54,0,1.01,.11,1.42,.32s.74,.53,1,.94,.47,.9,.62,1.49,.23,1.38,.23,2.37c0,1.18-.12,2.12-.36,2.85s-.6,1.28-1.08,1.67-1.09,.59-1.82,.59c-.97,0-1.73-.35-2.28-1.04-.66-.83-.99-2.19-.99-4.07Zm1.26,0c0,1.65,.19,2.74,.58,3.28s.86,.82,1.43,.82,1.04-.27,1.43-.82,.58-1.64,.58-3.28-.19-2.75-.58-3.29-.86-.81-1.44-.81-1.02,.24-1.35,.72c-.42,.61-.64,1.74-.64,3.38Z"/>
      <path class="cls-1" d="M32.33,105.77v-1.4h1.4v1.4h-1.4Z"/>
      <path class="cls-1" d="M35.61,97.06v-1.18h6.49v.96c-.64,.68-1.27,1.58-1.9,2.71s-1.11,2.28-1.45,3.47c-.25,.84-.4,1.76-.47,2.75h-1.26c.01-.79,.17-1.74,.46-2.86s.72-2.19,1.27-3.23,1.14-1.91,1.77-2.62h-4.91Z"/>
      <path class="cls-1" d="M43.31,103.15l1.29-.11c.1,.63,.32,1.1,.67,1.42s.77,.48,1.26,.48c.59,0,1.09-.22,1.5-.67s.62-1.04,.62-1.78-.2-1.26-.59-1.66-.91-.61-1.55-.61c-.4,0-.75,.09-1.07,.27s-.57,.41-.75,.7l-1.16-.15,.97-5.15h4.98v1.18h-4l-.54,2.69c.6-.42,1.23-.63,1.89-.63,.88,0,1.61,.3,2.21,.91s.9,1.39,.9,2.34-.26,1.69-.79,2.35c-.64,.81-1.52,1.22-2.63,1.22-.91,0-1.66-.26-2.23-.77s-.91-1.19-.99-2.03Z"/>
    </g>
    <g>
      <path class="cls-1" d="M28.48,21.81h-1.23v-7.84c-.3,.28-.68,.56-1.17,.85s-.91,.49-1.3,.64v-1.19c.69-.32,1.29-.72,1.8-1.18s.88-.91,1.09-1.34h.79v10.06Z"/>
      <path class="cls-1" d="M32.33,21.81v-1.4h1.4v1.4h-1.4Z"/>
      <path class="cls-1" d="M35.52,16.87c0-1.19,.12-2.14,.37-2.86s.61-1.28,1.09-1.67,1.09-.59,1.81-.59c.54,0,1.01,.11,1.42,.32s.74,.53,1,.94,.47,.9,.62,1.49,.23,1.38,.23,2.37c0,1.18-.12,2.12-.36,2.85s-.6,1.28-1.08,1.67-1.09,.59-1.82,.59c-.97,0-1.73-.35-2.28-1.04-.66-.83-.99-2.19-.99-4.07Zm1.26,0c0,1.65,.19,2.74,.58,3.28s.86,.82,1.43,.82,1.04-.27,1.43-.82,.58-1.64,.58-3.28-.19-2.75-.58-3.29-.86-.81-1.44-.81-1.02,.24-1.35,.72c-.42,.61-.64,1.74-.64,3.38Z"/>
      <path class="cls-1" d="M43.31,16.87c0-1.19,.12-2.14,.37-2.86s.61-1.28,1.09-1.67,1.09-.59,1.81-.59c.54,0,1.01,.11,1.42,.32s.74,.53,1,.94,.47,.9,.62,1.49,.23,1.38,.23,2.37c0,1.18-.12,2.12-.36,2.85s-.6,1.28-1.08,1.67-1.09,.59-1.82,.59c-.97,0-1.73-.35-2.28-1.04-.66-.83-.99-2.19-.99-4.07Zm1.26,0c0,1.65,.19,2.74,.58,3.28s.86,.82,1.43,.82,1.04-.27,1.43-.82,.58-1.64,.58-3.28-.19-2.75-.58-3.29-.86-.81-1.44-.81-1.02,.24-1.35,.72c-.42,.61-.64,1.74-.64,3.38Z"/>
    </g>
    <line class="cls-3" x1="52.71" y1="352.63" x2="55.45" y2="352.63"/>
    <line class="cls-3" x1="52.71" y1="268.67" x2="55.45" y2="268.67"/>
    <line class="cls-3" x1="52.71" y1="184.71" x2="55.45" y2="184.71"/>
    <line class="cls-3" x1="52.71" y1="100.75" x2="55.45" y2="100.75"/>
    <line class="cls-3" x1="52.71" y1="16.79" x2="55.45" y2="16.79"/>
    <line class="cls-3" x1="72.24" y1="372.17" x2="72.24" y2="369.43"/>
    <line class="cls-3" x1="156.2" y1="372.17" x2="156.2" y2="369.43"/>
    <line class="cls-3" x1="240.16" y1="372.17" x2="240.16" y2="369.43"/>
    <line class="cls-3" x1="324.13" y1="372.17" x2="324.13" y2="369.43"/>
    <line class="cls-3" x1="408.09" y1="372.17" x2="408.09" y2="369.43"/>
    <g>
      <path class="cls-1" d="M59.2,379.47c0-1.18,.12-2.14,.37-2.86,.24-.72,.61-1.28,1.09-1.67s1.09-.59,1.81-.59c.54,0,1.01,.11,1.42,.32,.41,.22,.74,.53,1,.94,.26,.41,.47,.9,.62,1.49,.15,.58,.23,1.38,.23,2.37,0,1.18-.12,2.12-.36,2.85-.24,.72-.6,1.28-1.08,1.68-.48,.39-1.09,.59-1.82,.59-.97,0-1.73-.35-2.28-1.04-.66-.83-.99-2.19-.99-4.07Zm1.26,0c0,1.65,.19,2.74,.58,3.28,.39,.54,.86,.82,1.43,.82s1.04-.27,1.43-.82,.58-1.64,.58-3.28-.19-2.75-.58-3.29-.86-.81-1.44-.81-1.02,.24-1.35,.72c-.42,.61-.64,1.74-.64,3.38Z"/>
      <path class="cls-1" d="M67.68,384.41v-1.4h1.4v1.4h-1.4Z"/>
      <path class="cls-1" d="M70.87,379.47c0-1.18,.12-2.14,.37-2.86,.24-.72,.61-1.28,1.09-1.67s1.09-.59,1.81-.59c.54,0,1.01,.11,1.42,.32,.41,.22,.74,.53,1,.94,.26,.41,.47,.9,.62,1.49,.15,.58,.23,1.38,.23,2.37,0,1.18-.12,2.12-.36,2.85-.24,.72-.6,1.28-1.08,1.68-.48,.39-1.09,.59-1.82,.59-.97,0-1.73-.35-2.28-1.04-.66-.83-.99-2.19-.99-4.07Zm1.26,0c0,1.65,.19,2.74,.58,3.28,.39,.54,.86,.82,1.43,.82s1.04-.27,1.43-.82,.58-1.64,.58-3.28-.19-2.75-.58-3.29-.86-.81-1.44-.81-1.02,.24-1.35,.72c-.42,.61-.64,1.74-.64,3.38Z"/>
      <path class="cls-1" d="M78.66,379.47c0-1.18,.12-2.14,.37-2.86,.24-.72,.61-1.28,1.09-1.67s1.09-.59,1.81-.59c.54,0,1.01,.11,1.42,.32,.41,.22,.74,.53,1,.94,.26,.41,.47,.9,.62,1.49,.15,.58,.23,1.38,.23,2.37,0,1.18-.12,2.12-.36,2.85-.24,.72-.6,1.28-1.08,1.68-.48,.39-1.09,.59-1.82,.59-.97,0-1.73-.35-2.28-1.04-.66-.83-.99-2.19-.99-4.07Zm1.26,0c0,1.65,.19,2.74,.58,3.28,.39,.54,.86,.82,1.43,.82s1.04-.27,1.43-.82,.58-1.64,.58-3.28-.19-2.75-.58-3.29-.86-.81-1.44-.81-1.02,.24-1.35,.72c-.42,.61-.64,1.74-.64,3.38Z"/>
    </g>
    <g>
      <path class="cls-1" d="M143.16,379.47c0-1.18,.12-2.14,.37-2.86,.24-.72,.61-1.28,1.09-1.67s1.09-.59,1.81-.59c.54,0,1.01,.11,1.42,.32,.41,.22,.74,.53,1,.94,.26,.41,.47,.9,.62,1.49,.15,.58,.23,1.38,.23,2.37,0,1.18-.12,2.12-.36,2.85-.24,.72-.6,1.28-1.08,1.68-.48,.39-1.09,.59-1.82,.59-.97,0-1.73-.35-2.28-1.04-.66-.83-.99-2.19-.99-4.07Zm1.26,0c0,1.65,.19,2.74,.58,3.28,.39,.54,.86,.82,1.43,.82s1.04-.27,1.43-.82,.58-1.64,.58-3.28-.19-2.75-.58-3.29-.86-.81-1.44-.81-1.02,.24-1.35,.72c-.42,.61-.64,1.74-.64,3.38Z"/>
      <path class="cls-1" d="M151.64,384.41v-1.4h1.4v1.4h-1.4Z"/>
      <path class="cls-1" d="M161.3,383.23v1.18h-6.62c0-.3,.04-.58,.14-.85,.17-.45,.44-.9,.81-1.33s.91-.94,1.61-1.52c1.09-.89,1.83-1.6,2.21-2.12,.38-.52,.57-1.01,.57-1.48s-.17-.9-.52-1.23c-.35-.34-.8-.5-1.36-.5-.59,0-1.07,.18-1.42,.53s-.54,.85-.54,1.48l-1.26-.13c.09-.94,.41-1.66,.98-2.16,.56-.5,1.32-.74,2.28-.74s1.72,.27,2.28,.8,.84,1.19,.84,1.98c0,.4-.08,.79-.25,1.18s-.44,.79-.82,1.22-1.01,1.02-1.9,1.76c-.74,.62-1.21,1.04-1.42,1.26-.21,.22-.38,.44-.52,.67h4.92Z"/>
      <path class="cls-1" d="M162.62,381.79l1.29-.11c.1,.63,.32,1.1,.67,1.42,.35,.32,.77,.48,1.26,.48,.59,0,1.09-.22,1.5-.67s.62-1.04,.62-1.78-.2-1.26-.59-1.66-.91-.61-1.55-.61c-.4,0-.75,.09-1.07,.27-.32,.18-.57,.41-.75,.7l-1.16-.15,.97-5.15h4.98v1.18h-4l-.54,2.69c.6-.42,1.23-.63,1.89-.63,.88,0,1.61,.3,2.21,.91s.9,1.39,.9,2.34-.26,1.69-.79,2.35c-.64,.81-1.52,1.22-2.63,1.22-.91,0-1.66-.25-2.23-.77s-.91-1.19-.99-2.03Z"/>
    </g>
    <g>
      <path class="cls-1" d="M227.12,379.47c0-1.18,.12-2.14,.37-2.86,.24-.72,.61-1.28,1.09-1.67,.48-.39,1.09-.59,1.82-.59,.54,0,1.01,.11,1.42,.32,.41,.22,.74,.53,1,.94,.26,.41,.47,.9,.62,1.49,.15,.58,.23,1.38,.23,2.37,0,1.18-.12,2.12-.36,2.85-.24,.72-.6,1.28-1.08,1.68-.48,.39-1.09,.59-1.82,.59-.97,0-1.72-.35-2.28-1.04-.66-.83-.99-2.19-.99-4.07Zm1.26,0c0,1.65,.19,2.74,.58,3.28,.38,.54,.86,.82,1.42,.82s1.04-.27,1.42-.82c.39-.55,.58-1.64,.58-3.28s-.19-2.75-.58-3.29c-.38-.54-.86-.81-1.44-.81s-1.02,.24-1.35,.72c-.42,.61-.64,1.74-.64,3.38Z"/>
      <path class="cls-1" d="M235.6,384.41v-1.4h1.4v1.4h-1.4Z"/>
      <path class="cls-1" d="M238.79,381.79l1.29-.11c.1,.63,.32,1.1,.67,1.42,.35,.32,.77,.48,1.26,.48,.59,0,1.09-.22,1.5-.67s.62-1.04,.62-1.78-.2-1.26-.59-1.66c-.39-.41-.91-.61-1.55-.61-.4,0-.75,.09-1.07,.27-.32,.18-.57,.41-.75,.7l-1.16-.15,.97-5.15h4.98v1.18h-4l-.54,2.69c.6-.42,1.23-.63,1.89-.63,.88,0,1.61,.3,2.21,.91s.9,1.39,.9,2.34-.26,1.69-.79,2.35c-.64,.81-1.52,1.22-2.63,1.22-.91,0-1.66-.25-2.23-.77-.58-.51-.91-1.19-.99-2.03Z"/>
      <path class="cls-1" d="M246.58,379.47c0-1.18,.12-2.14,.37-2.86,.24-.72,.61-1.28,1.09-1.67,.48-.39,1.09-.59,1.82-.59,.54,0,1.01,.11,1.42,.32,.41,.22,.74,.53,1,.94,.26,.41,.47,.9,.62,1.49,.15,.58,.23,1.38,.23,2.37,0,1.18-.12,2.12-.36,2.85-.24,.72-.6,1.28-1.08,1.68-.48,.39-1.09,.59-1.82,.59-.97,0-1.72-.35-2.28-1.04-.66-.83-.99-2.19-.99-4.07Zm1.26,0c0,1.65,.19,2.74,.58,3.28,.38,.54,.86,.82,1.42,.82s1.04-.27,1.42-.82c.39-.55,.58-1.64,.58-3.28s-.19-2.75-.58-3.29c-.38-.54-.86-.81-1.44-.81s-1.02,.24-1.35,.72c-.42,.61-.64,1.74-.64,3.38Z"/>
    </g>
    <g>
      <path class="cls-1" d="M311.08,379.47c0-1.18,.12-2.14,.37-2.86,.24-.72,.61-1.28,1.09-1.67,.48-.39,1.09-.59,1.82-.59,.54,0,1.01,.11,1.42,.32,.41,.22,.74,.53,1,.94,.26,.41,.47,.9,.62,1.49,.15,.58,.23,1.38,.23,2.37,0,1.18-.12,2.12-.36,2.85-.24,.72-.6,1.28-1.08,1.68-.48,.39-1.09,.59-1.82,.59-.97,0-1.72-.35-2.28-1.04-.66-.83-.99-2.19-.99-4.07Zm1.26,0c0,1.65,.19,2.74,.58,3.28,.38,.54,.86,.82,1.42,.82s1.04-.27,1.42-.82c.39-.55,.58-1.64,.58-3.28s-.19-2.75-.58-3.29c-.38-.54-.86-.81-1.44-.81s-1.02,.24-1.35,.72c-.42,.61-.64,1.74-.64,3.38Z"/>
      <path class="cls-1" d="M319.56,384.41v-1.4h1.4v1.4h-1.4Z"/>
      <path class="cls-1" d="M322.84,375.7v-1.18h6.49v.96c-.64,.68-1.27,1.58-1.9,2.71-.63,1.13-1.11,2.28-1.45,3.47-.25,.84-.4,1.76-.47,2.75h-1.26c.01-.79,.17-1.74,.46-2.86s.72-2.19,1.28-3.23c.55-1.04,1.14-1.91,1.77-2.62h-4.91Z"/>
      <path class="cls-1" d="M330.54,381.79l1.29-.11c.1,.63,.32,1.1,.67,1.42,.35,.32,.77,.48,1.26,.48,.59,0,1.09-.22,1.5-.67s.62-1.04,.62-1.78-.2-1.26-.59-1.66c-.39-.41-.91-.61-1.55-.61-.4,0-.75,.09-1.07,.27-.32,.18-.57,.41-.75,.7l-1.16-.15,.97-5.15h4.98v1.18h-4l-.54,2.69c.6-.42,1.23-.63,1.89-.63,.88,0,1.61,.3,2.21,.91s.9,1.39,.9,2.34-.26,1.69-.79,2.35c-.64,.81-1.52,1.22-2.63,1.22-.91,0-1.66-.25-2.23-.77-.58-.51-.91-1.19-.99-2.03Z"/>
    </g>
    <g>
      <path class="cls-1" d="M399.68,384.41h-1.23v-7.84c-.3,.28-.68,.57-1.17,.85-.48,.28-.91,.49-1.3,.64v-1.19c.69-.32,1.29-.72,1.8-1.18s.88-.91,1.09-1.34h.79v10.06Z"/>
      <path class="cls-1" d="M403.53,384.41v-1.4h1.4v1.4h-1.4Z"/>
      <path class="cls-1" d="M406.72,379.47c0-1.18,.12-2.14,.37-2.86,.24-.72,.61-1.28,1.09-1.67,.48-.39,1.09-.59,1.82-.59,.54,0,1.01,.11,1.42,.32,.41,.22,.74,.53,1,.94,.26,.41,.47,.9,.62,1.49,.15,.58,.23,1.38,.23,2.37,0,1.18-.12,2.12-.36,2.85-.24,.72-.6,1.28-1.08,1.68-.48,.39-1.09,.59-1.82,.59-.97,0-1.72-.35-2.28-1.04-.66-.83-.99-2.19-.99-4.07Zm1.26,0c0,1.65,.19,2.74,.58,3.28,.38,.54,.86,.82,1.42,.82s1.04-.27,1.42-.82c.39-.55,.58-1.64,.58-3.28s-.19-2.75-.58-3.29c-.38-.54-.86-.81-1.44-.81s-1.02,.24-1.35,.72c-.42,.61-.64,1.74-.64,3.38Z"/>
      <path class="cls-1" d="M414.51,379.47c0-1.18,.12-2.14,.37-2.86,.24-.72,.61-1.28,1.09-1.67,.48-.39,1.09-.59,1.82-.59,.54,0,1.01,.11,1.42,.32,.41,.22,.74,.53,1,.94,.26,.41,.47,.9,.62,1.49,.15,.58,.23,1.38,.23,2.37,0,1.18-.12,2.12-.36,2.85-.24,.72-.6,1.28-1.08,1.68-.48,.39-1.09,.59-1.82,.59-.97,0-1.72-.35-2.28-1.04-.66-.83-.99-2.19-.99-4.07Zm1.26,0c0,1.65,.19,2.74,.58,3.28,.38,.54,.86,.82,1.42,.82s1.04-.27,1.42-.82c.39-.55,.58-1.64,.58-3.28s-.19-2.75-.58-3.29c-.38-.54-.86-.81-1.44-.81s-1.02,.24-1.35,.72c-.42,.61-.64,1.74-.64,3.38Z"/>
    </g>
    <g>
      <path d="M229.68,403.28v-12.88h1.71v11.36h6.35v1.52h-8.05Z"/>
      <path d="M240.05,403.28v-12.88h1.7v12.88h-1.7Z"/>
      <path d="M243.34,403.28l4.95-12.88h1.84l5.27,12.88h-1.94l-1.5-3.9h-5.39l-1.42,3.9h-1.81Zm3.72-5.29h4.37l-1.34-3.57c-.41-1.08-.71-1.97-.91-2.67-.16,.83-.4,1.65-.69,2.46l-1.42,3.78Z"/>
    </g>
    <g>
      <path d="M13.93,205.63h1.52v8.52c-.38,.01-.75-.05-1.1-.19-.58-.22-1.15-.56-1.71-1.04s-1.21-1.17-1.95-2.07c-1.15-1.4-2.06-2.35-2.73-2.84s-1.31-.74-1.9-.74c-.63,0-1.16,.22-1.59,.67-.43,.45-.65,1.03-.65,1.75,0,.76,.23,1.37,.69,1.83s1.09,.69,1.9,.69l-.17,1.63c-1.21-.11-2.14-.53-2.77-1.26-.63-.73-.95-1.7-.95-2.93s.34-2.21,1.03-2.94,1.54-1.08,2.55-1.08c.52,0,1.02,.11,1.52,.32s1.02,.56,1.57,1.05,1.31,1.3,2.27,2.44c.8,.95,1.34,1.56,1.62,1.83s.57,.49,.86,.67v-6.32Z"/>
      <path d="M15.45,203.29H2.56v-4.44c0-1,.06-1.77,.18-2.29,.17-.74,.48-1.37,.92-1.89,.57-.68,1.31-1.19,2.2-1.53,.89-.34,1.92-.51,3.06-.51,.98,0,1.85,.12,2.6,.34s1.38,.52,1.88,.88c.5,.36,.89,.75,1.17,1.17s.5,.94,.65,1.54,.22,1.29,.22,2.07v4.65Zm-1.52-1.71v-2.75c0-.85-.08-1.52-.24-2s-.38-.87-.67-1.16c-.4-.4-.95-.72-1.63-.94-.68-.23-1.51-.34-2.48-.34-1.35,0-2.38,.22-3.11,.66-.72,.44-1.21,.98-1.45,1.61-.18,.46-.26,1.19-.26,2.21v2.71H13.93Z"/>
      <path d="M11.58,191.11h-1.59v-4.86h1.59v4.86Z"/>
      <path d="M15.45,184.37H2.56v-1.71H13.93v-6.35h1.52v8.05Z"/>
      <path d="M15.45,174H2.56v-1.71H15.45v1.71Z"/>
      <path d="M15.45,170.7l-12.88-4.95v-1.84l12.88-5.27v1.94l-3.9,1.5v5.39l3.9,1.42v1.81Zm-5.29-3.72v-4.37l-3.57,1.34c-1.08,.41-1.97,.71-2.67,.91,.83,.16,1.65,.4,2.46,.69l3.78,1.42Z"/>
    </g>
  </g>
</svg>