<?xml version="1.0" encoding="UTF-8" standalone="no"?>
<!DOCTYPE svg PUBLIC "-//W3C//DTD SVG 1.1//EN" "http://www.w3.org/Graphics/SVG/1.1/DTD/svg11.dtd">
<!-- 由 Microsoft Visio, SVG Export 生成 Figure_3.svg 页-1 -->
<svg xmlns="http://www.w3.org/2000/svg" xmlns:xlink="http://www.w3.org/1999/xlink" xmlns:ev="http://www.w3.org/2001/xml-events"
		width="4.48876in" height="5.32538in" viewBox="0 0 323.191 383.427" xml:space="preserve" color-interpolation-filters="sRGB"
		class="st20">
	<style type="text/css">
	<![CDATA[
		.st1 {fill:#eeeaf2;stroke:#000000;stroke-linecap:round;stroke-linejoin:round;stroke-width:0.75}
		.st2 {fill:none;stroke:#000000;stroke-linecap:round;stroke-linejoin:round;stroke-width:0.75}
		.st3 {fill:#923931;stroke:none;stroke-linecap:round;stroke-linejoin:round;stroke-width:0.5}
		.st4 {fill:#ffffff;font-family:Calibri;font-size:1.16666em}
		.st5 {fill:#ffffff;stroke:#000000;stroke-linecap:round;stroke-linejoin:round;stroke-width:0.75}
		.st6 {fill:none;stroke:none;stroke-linecap:round;stroke-linejoin:round;stroke-width:0.25}
		.st7 {fill:#000000;font-family:Calibri;font-size:1.16666em}
		.st8 {fill:#000000;font-family:Calibri;font-size:1.5em;font-weight:bold}
		.st9 {fill:#92cddc;stroke:#000000;stroke-linecap:round;stroke-linejoin:round;stroke-width:0.75}
		.st10 {fill:#31859b;stroke:none;stroke-linecap:round;stroke-linejoin:round;stroke-width:0.5}
		.st11 {fill:#ffffff;stroke:#000000;stroke-dasharray:5.25,3.75;stroke-linecap:round;stroke-linejoin:round;stroke-width:0.75}
		.st12 {fill:#c4d6a0;stroke:#000000;stroke-linecap:round;stroke-linejoin:round;stroke-width:0.75}
		.st13 {fill:none;stroke:none;stroke-linecap:round;stroke-linejoin:round;stroke-width:0.75}
		.st14 {fill:#000000;font-family:Calibri;font-size:1.00001em}
		.st15 {fill:#d9958f;stroke:#000000;stroke-linecap:round;stroke-linejoin:round;stroke-width:0.75}
		.st16 {fill:#000000;stroke:#000000;stroke-linecap:round;stroke-linejoin:round;stroke-width:0.75}
		.st17 {fill:#000000;font-family:Calibri;font-size:0.666664em}
		.st18 {marker-end:url(#mrkr4-77);stroke:#000000;stroke-dasharray:5.25,3.75;stroke-linecap:round;stroke-linejoin:round;stroke-width:0.75}
		.st19 {fill:#000000;fill-opacity:1;stroke:#000000;stroke-opacity:1;stroke-width:0.22935779816514}
		.st20 {fill:none;fill-rule:evenodd;font-size:12px;overflow:visible;stroke-linecap:square;stroke-miterlimit:3}
	]]>
	</style>

	<defs id="Markers">
		<g id="lend4">
			<path d="M 2 1 L 0 0 L 2 -1 L 2 1 " style="stroke:none"/>
		</g>
		<marker id="mrkr4-77" class="st19" refX="-8.72" orient="auto" markerUnits="strokeWidth" overflow="visible">
			<use xlink:href="#lend4" transform="scale(-4.36,-4.36) "/>
		</marker>
	</defs>
	<g>
		<title>页-1</title>
		<g id="shape2-1" transform="translate(0.375,-0.375)">
			<title>工作表.2</title>
			<rect x="0" y="0.749994" width="322.441" height="382.677" class="st1"/>
		</g>
		<g id="shape34-3" transform="translate(68.0522,-91.0837)">
			<title>工作表.34</title>
			<rect x="0" y="295.553" width="187.087" height="87.874" class="st2"/>
		</g>
		<g id="shape27-5" transform="translate(75.3159,-193.981)">
			<title>工作表.27</title>
			<rect x="0" y="273.726" width="172.559" height="109.701" class="st2"/>
		</g>
		<g id="shape3-7" transform="translate(95.1585,-150.304)">
			<title>工作表.3</title>
			<desc>Parameter extraction</desc>
			<rect x="0" y="361.86" width="132.874" height="21.5673" class="st3"/>
			<text x="5.82" y="376.84" class="st4">Parameter extraction</text>		</g>
		<g id="shape4-10" transform="translate(169.745,718.29) rotate(180)">
			<title>工作表.4</title>
			<path d="M8.15 369.25 L0 374.57 L4.41 374.57 L4.41 383.43 L11.89 383.43 L11.89 374.57 L16.3 374.57 L8.15 369.25 Z"
					class="st5"/>
		</g>
		<g id="shape6-12" transform="translate(98.8789,-321.245)">
			<title>工作表.6</title>
			<desc>Import image</desc>
			<rect x="0" y="361.86" width="125.433" height="21.5673" class="st6"/>
			<text x="24.3" y="376.84" class="st7">Import image</text>		</g>
		<g id="shape10-15" transform="translate(71.1734,-54.2333)">
			<title>工作表.10</title>
			<desc>Integrated estimation results</desc>
			<rect x="0" y="369.254" width="180.844" height="14.1732" class="st6"/>
			<text x="7.93" y="380.54" class="st7">Integrated estimation results</text>		</g>
		<g id="shape11-18" transform="translate(122.619,-13.1309)">
			<title>工作表.11</title>
			<desc>Output</desc>
			<rect x="0" y="369.254" width="77.9528" height="14.1732" class="st6"/>
			<text x="18.62" y="380.54" class="st7">Output</text>		</g>
		<g id="shape12-21" transform="translate(11.0049,-346.202)">
			<title>工作表.12</title>
			<desc>CVLM structure</desc>
			<rect x="0" y="361.86" width="144.567" height="21.5673" class="st6"/>
			<text x="4" y="378.04" class="st8">CVLM structure</text>		</g>
		<g id="shape18-24" transform="translate(181.438,445.302) rotate(180)">
			<title>工作表.18</title>
			<path d="M19.84 361.86 L0 369.95 L10.74 369.95 L10.74 383.43 L28.95 383.43 L28.95 369.95 L39.69 369.95 L19.84 361.86 Z"
					class="st9"/>
		</g>
		<g id="shape26-26" transform="translate(98.8789,-266.182)">
			<title>工作表.26</title>
			<desc>Model selection</desc>
			<rect x="0" y="361.86" width="125.433" height="21.5673" class="st10"/>
			<text x="17.1" y="376.84" class="st4">Model selection</text>		</g>
		<g id="shape32-29" transform="translate(84.7057,-204.469)">
			<title>工作表.32</title>
			<path d="M0 383.43 L71.43 383.43 L71.43 348.84 L0 348.84 L0 383.43 Z" class="st11"/>
		</g>
		<g id="shape25-31" transform="translate(-131.335,394.529) rotate(-135)">
			<title>工作表.25</title>
			<path d="M1.7 371.37 L0 375.9 L0.92 375.9 L0.92 383.43 L2.48 383.43 L2.48 375.9 L3.41 375.9 L1.7 371.37 Z" class="st12"/>
		</g>
		<g id="shape29-33" transform="translate(86.69,-222.044)">
			<title>工作表.29</title>
			<desc>Deeplabv3+</desc>
			<rect x="0" y="369.821" width="66.0472" height="13.6063" class="st13"/>
			<text x="4.07" y="380.22" class="st14">Deeplabv3+</text>		</g>
		<g id="shape33-36" transform="translate(166.769,-204.469)">
			<title>工作表.33</title>
			<path d="M0 383.43 L71.43 383.43 L71.43 348.84 L0 348.84 L0 383.43 Z" class="st11"/>
		</g>
		<g id="shape31-38" transform="translate(175.414,-222.044)">
			<title>工作表.31</title>
			<desc>YOLOv8-T</desc>
			<rect x="0" y="369.821" width="56.6929" height="13.6063" class="st13"/>
			<text x="4.44" y="380.22" class="st14">YOLOv8-T</text>		</g>
		<g id="shape35-41" transform="translate(455.381,392.122) rotate(135)">
			<title>工作表.35</title>
			<path d="M1.7 371.37 L0 375.9 L0.92 375.9 L0.92 383.43 L2.48 383.43 L2.48 375.9 L3.41 375.9 L1.7 371.37 Z" class="st12"/>
		</g>
		<g id="shape36-43" transform="translate(181.438,569.471) rotate(180)">
			<title>工作表.36</title>
			<path d="M19.84 361.86 L0 369.95 L10.74 369.95 L10.74 383.43 L28.95 383.43 L28.95 369.95 L39.69 369.95 L19.84 361.86 Z"
					class="st15"/>
		</g>
		<g id="shape40-45" transform="translate(89.5246,-108.092)">
			<title>工作表.40</title>
			<path d="M0 383.43 L66.05 383.43 L66.05 361.86 L0 361.86 L0 383.43 Z" class="st11"/>
		</g>
		<g id="shape37-47" transform="translate(97.7451,-111.789)">
			<title>工作表.37</title>
			<desc>TVLMPs</desc>
			<rect x="0" y="369.254" width="49.6063" height="14.1732" class="st13"/>
			<text x="5.38" y="379.94" class="st14">TVLMPs</text>		</g>
		<g id="shape41-50" transform="translate(167.903,-108.092)">
			<title>工作表.41</title>
			<path d="M0 383.43 L66.05 383.43 L66.05 361.86 L0 361.86 L0 383.43 Z" class="st11"/>
		</g>
		<g id="shape38-52" transform="translate(176.123,-111.789)">
			<title>工作表.38</title>
			<desc>SVLMPs</desc>
			<rect x="0" y="369.254" width="49.6063" height="14.1732" class="st13"/>
			<text x="5.54" y="379.94" class="st14">SVLMPs</text>		</g>
		<g id="shape42-55" transform="translate(181.438,672.074) rotate(180)">
			<title>工作表.42</title>
			<path d="M19.84 361.86 L0 369.95 L10.74 369.95 L10.74 383.43 L28.95 383.43 L28.95 369.95 L39.69 369.95 L19.84 361.86 Z"
					class="st16"/>
		</g>
		<g id="shape49-57" transform="translate(11.0049,-146.643)">
			<title>工作表.49</title>
			<desc>TVDs</desc>
			<rect x="0" y="369.821" width="35.4331" height="13.6063" class="st13"/>
			<text x="5.35" y="380.22" class="st14">TVDs</text>		</g>
		<g id="shape50-60" transform="translate(274.627,-146.926)">
			<title>工作表.50</title>
			<desc>SVDs</desc>
			<rect x="0" y="369.821" width="35.4331" height="13.6063" class="st13"/>
			<text x="5.52" y="380.22" class="st14">SVDs</text>		</g>
		<g id="shape30-63" transform="translate(91.7923,-207.304)">
			<title>工作表.30</title>
			<desc>U-net</desc>
			<rect x="0" y="369.821" width="56.6929" height="13.6063" class="st13"/>
			<text x="14.51" y="380.22" class="st14">U-net</text>		</g>
		<g id="shape51-66" transform="translate(76.8732,-239.052)">
			<title>工作表.51</title>
			<desc>Semantic segmentation</desc>
			<rect x="0" y="369.821" width="86.5313" height="13.6063" class="st6"/>
			<text x="4.92" y="379.02" class="st17">Semantic segmentation</text>		</g>
		<g id="shape52-69" transform="translate(162.481,-239.052)">
			<title>工作表.52</title>
			<desc>Object detection</desc>
			<rect x="0" y="369.821" width="79.7244" height="13.6063" class="st6"/>
			<text x="12.65" y="379.02" class="st17">Object detection</text>		</g>
		<g id="shape53-72" transform="translate(45.0207,-119.43)">
			<title>工作表.53</title>
			<path d="M107.47 315.4 L0 315.4 L0 383.43 L37.96 383.43" class="st18"/>
		</g>
		<g id="group55-78" transform="translate(171.41,-119.714)">
			<title>工作表.55</title>
			<g id="shape54-79" transform="translate(107.469,5.68434E-14) scale(-1,1)">
				<title>工作表.54</title>
				<path d="M107.47 315.4 L0 315.4 L0 383.43 L37.96 383.43" class="st18"/>
			</g>
		</g>
		<g id="shape56-84" transform="translate(175.414,-206.454)">
			<title>工作表.56</title>
			<desc>YOLOv8-S</desc>
			<rect x="0" y="369.821" width="56.6929" height="13.6063" class="st13"/>
			<text x="4.61" y="380.22" class="st14">YOLOv8-S</text>		</g>
	</g>
</svg>
